<?xml version="1.0" standalone="no"?>
<!DOCTYPE svg PUBLIC "-//W3C//DTD SVG 1.1//EN" "http://www.w3.org/Graphics/SVG/1.1/DTD/svg11.dtd" >
<svg xmlns="http://www.w3.org/2000/svg">
<metadata></metadata>
<defs>
<font id="friz_quadrataregular" horiz-adv-x="1849" >
<font-face units-per-em="2048" ascent="1637" descent="-411" />
<missing-glyph horiz-adv-x="613" />
<glyph unicode="&#xd;" horiz-adv-x="613" />
<glyph unicode=" "  horiz-adv-x="613" />
<glyph unicode="&#x09;" horiz-adv-x="613" />
<glyph unicode="&#xa0;" horiz-adv-x="613" />
<glyph unicode="!" horiz-adv-x="492" d="M76 1578l312 2h10q17 0 26 -11q6 -6 2 -34l-55 -1141h-166l-44 1063q0 45 -24.5 76.5t-60.5 44.5zM146 108q0 59 40 104.5t110 45.5q68 0 106 -42t38 -100q0 -59 -40 -104.5t-110 -45.5q-68 0 -106 41.5t-38 100.5z" />
<glyph unicode="&#x22;" horiz-adv-x="532" d="M81 1597h105l-17 -472h-70zM352 1597h105l-17 -472h-71z" />
<glyph unicode="#" horiz-adv-x="1267" d="M70 544v142h301l31 216h-281v142h298l75 506h144l-70 -506h218l80 506h142l-74 -506h261v-142h-278l-32 -216h256v-142h-277l-76 -544h-150l80 544h-222l-79 -544h-144l77 544h-280zM517 684h220l34 218h-223z" />
<glyph unicode="$" horiz-adv-x="1163" d="M61 1190q0 45 13 86t49 92q57 81 166 136t198 55h19v186h127v-186q32 0 64 -4.5t95 -16.5q27 -6 63.5 -15t76.5 -23v-253q-15 19 -55 53q-51 44 -93 64q-76 36 -151 44v-459l36 -21q99 -55 197 -108q172 -114 206 -235q23 -80 23 -155q0 -99 -42 -170q-61 -110 -178 -179 q-97 -57 -229 -83l-15 -2v-204h-129v206l-169 17l-255 17v286q36 -34 88 -67t111 -56q110 -40 225 -40v601l-38 13q-125 51 -204 102q-178 114 -194 243q-6 44 -5 76zM278 1203q0 -76 80 -131q17 -13 129 -66l17 -9v409h-15q-76 0 -143.5 -60t-67.5 -143zM631 155h11 q83 0 160 84.5t77 165.5q0 99 -68 171q-55 59 -171 110l-9 4v-535z" />
<glyph unicode="%" horiz-adv-x="1905" d="M76 1106q0 144 53 262.5t157 177.5q76 44 167 44q36 0 53 -2t51 -14q127 -38 197 -170q64 -121 64 -282q0 -169 -64 -300q-70 -142 -193 -189q-21 -8 -53 -13.5t-51 -5.5q-27 0 -42 2t-44 7q-140 30 -221 175q-74 131 -74 308zM225 1112q0 -153 56 -267t155 -114h38 q95 0 151 110q51 99 51 245q0 157 -56 267q-64 125 -171 125l-21 -2q-97 0 -150 -107t-53 -257zM512 0l763 1550h140l-767 -1550h-136zM1099 458q0 144 53 262.5t157 177.5q76 44 167 44q36 0 53 -2t51 -14q127 -38 197 -170q64 -121 64 -284q0 -167 -64 -298 q-70 -144 -193 -191q-51 -19 -106 -19q-25 0 -40 2t-44 7q-140 32 -221 177q-74 133 -74 308zM1249 464q0 -153 55.5 -267t154.5 -114h38q95 0 151 110q51 99 51 245q0 157 -56 267q-64 125 -171 125l-21 -2q-97 0 -149.5 -107t-52.5 -257z" />
<glyph unicode="&#x26;" horiz-adv-x="1907" d="M68 409v23q0 138 104 280q74 102 188 190l28 23l-64 68q-59 61 -90 130t-31 143q0 87 48 160.5t136.5 115.5t182.5 42q97 0 177.5 -43.5t123.5 -132.5q38 -74 38 -150q0 -87 -48 -167.5t-133 -158.5l-25 -23l11 -13l368 -348q72 -68 150.5 -135.5t152.5 -122.5 q125 -93 231 -157.5t244 -132.5h-318h-21q-44 0 -87 9.5t-95 43.5q-91 61 -153 108q-51 40 -89 78l-6 5l-34 -51q-76 -114 -201 -172q-112 -53 -244 -53h-27h-20q-15 4 -23 4q-201 25 -313 111q-135 104 -159 303q-2 11 -2 23zM318 421q0 -108 68 -188q95 -112 247 -112 q93 0 181 44.5t162 133.5l22 29l-466 456l-53 -43q-74 -63 -117.5 -147t-43.5 -173zM402 1294q0 -49 41 -108q28 -40 105 -116l22 -22l31 24q57 44 88 101.5t31 112.5q0 70 -51 108q-49 34 -112 34q-116 0 -148 -90q-8 -21 -7 -44z" />
<glyph unicode="'" horiz-adv-x="263" d="M81 1597h105l-17 -472h-70z" />
<glyph unicode="(" horiz-adv-x="610" d="M70 614q0 269 99 530q85 225 225 406h155q-136 -193 -216.5 -439.5t-80.5 -481.5t68 -474q76 -265 226 -479h-154q-146 186 -231 426q-91 256 -91 512z" />
<glyph unicode=")" horiz-adv-x="615" d="M70 1550h154q138 -178 225 -406q100 -263 100 -530q0 -254 -89 -503t-235 -435h-153q146 208 224 479q70 243 70 474q0 239 -79 480.5t-217 440.5z" />
<glyph unicode="*" horiz-adv-x="790" d="M70 1237l61 188q19 -19 38 -36t49 -32.5t66 -30.5t68 -23q2 8 0 55.5t-9.5 85.5t-14 53t-31.5 53h199q-23 -42 -28.5 -58t-9 -40t-5.5 -52t-2 -78v-15v-4q40 8 68 21q15 6 65 34q30 15 47 31q4 4 38 39l62 -183q-44 6 -74 5q-23 0 -49 -3.5t-68 -16t-53 -19.5 q17 -34 38 -59q15 -17 49 -49q23 -21 47.5 -36.5t51.5 -24.5l-161 -117q-8 49 -8 53q-6 21 -19 51q-19 36 -45 76q-17 27 -35 47q-28 -27 -45 -52.5t-36 -68.5q-25 -55 -25 -108l-161 117q30 15 49.5 25.5t39.5 31.5q49 47 53 51q23 25 44 61q-8 4 -61 19t-72.5 18t-29.5 3 h-15q-32 0 -76 -12z" />
<glyph unicode="+" horiz-adv-x="1229" d="M70 485v136h476v487h132v-488h480v-135h-485v-485h-125v485h-478z" />
<glyph unicode="," horiz-adv-x="443" d="M55 -244l23 20q74 66 114.5 126t23.5 81q-40 9 -72 28q-66 38 -66 106q0 64 43.5 101.5t103.5 37.5q38 0 68.5 -16t49.5 -52q25 -47 25 -101q0 -57 -27 -117.5t-74 -122.5q-25 -32 -55 -62.5t-46 -36.5t-43 -6q-42 0 -68 14z" />
<glyph unicode="-" horiz-adv-x="909" d="M76 498l148 167q11 13 32 24.5t40 11.5h28q53 0 114.5 -1t133.5 -1h30h25h21q32 0 57.5 1t52 6.5t51.5 13t42 13.5l-148 -167q-17 -19 -36 -29t-47 -10h-36h-108t-120 2q-59 0 -110 -1t-75 -7z" />
<glyph unicode="." horiz-adv-x="445" d="M74 121q0 61 39.5 106.5t111.5 45.5q68 0 110 -46q36 -40 36 -100q0 -61 -39.5 -106.5t-111.5 -45.5q-70 0 -108 43t-38 103z" />
<glyph unicode="/" horiz-adv-x="903" d="M-72 -328l733 1878h174l-735 -1878h-172z" />
<glyph unicode="0" horiz-adv-x="1386" d="M76 773q0 237 92 439.5t258 301.5q114 64 267 64q122 0 228 -42q191 -76 299 -295q100 -205 100 -464q0 -269 -107 -483q-117 -231 -324 -309q-42 -15 -91.5 -23.5t-98.5 -8.5q-80 0 -140 19q-233 74 -364 308q-119 216 -119 493zM320 782q0 -260 89 -439 q100 -203 269 -203h63q155 17 248 207q85 177 85 417q0 256 -93 430q-104 197 -286 197l-30 -2q-165 0 -260 -188q-85 -169 -85 -419z" />
<glyph unicode="1" horiz-adv-x="735" d="M42 1231q91 32 154.5 68.5t140 98t127.5 121t101 146.5v-1405q0 -64 8.5 -113.5t28.5 -80.5q29 -39 74 -66h-487q15 6 42 25t42 36q28 32 38.5 83t10.5 117v970h-280z" />
<glyph unicode="2" horiz-adv-x="1348" d="M63 0l714 1029q25 36 37 72t12 77q0 127 -114 194q-68 38 -163 38q-91 0 -186.5 -34.5t-173.5 -87.5l-51 -38l150 294q17 13 111.5 30t189.5 17t178.5 -17t147.5 -56q95 -59 140 -141q40 -70 40 -149q0 -63 -22 -124.5t-54 -106.5l-536 -796q47 -9 162 -18t185 -9 q87 0 149.5 12.5t130.5 25.5q55 15 180 78l-132 -290h-1095z" />
<glyph unicode="3" horiz-adv-x="1250" d="M63 271l24 -13q104 -55 207.5 -82.5t199.5 -27.5q184 0 303.5 94.5t119.5 253.5q0 146 -131 216q-104 55 -257 55q-53 0 -102.5 -7.5t-74.5 -16.5v204q34 -19 125 -19q133 0 222 50q117 66 118 200q0 102 -82.5 165t-215.5 63q-80 0 -160.5 -24t-167.5 -75l-38 -23 l91 247q27 21 114 39t191 18q68 0 120.5 -7t114.5 -26q127 -40 207.5 -131.5t80.5 -203.5q0 -53 -19.5 -107t-61.5 -105q-21 -25 -67.5 -52.5t-101.5 -49.5l-36 -16l31 -9q70 -23 114.5 -41t93.5 -52q72 -49 115.5 -134.5t43.5 -185.5q0 -85 -34 -165.5t-106 -150.5 q-89 -89 -258.5 -137.5t-361.5 -48.5q-95 0 -195 15l-49 8z" />
<glyph unicode="4" horiz-adv-x="1494" d="M70 318l726 1232h331v-1048l31 2q38 0 58.5 4t67 19t74 30t67.5 45l-114 -284h-184v-115q0 -53 13.5 -93t38 -67.5t45.5 -42.5h-459q51 11 82 49q23 28 30.5 64.5t7.5 66.5v138h-815zM388 515l497 -11v871z" />
<glyph unicode="5" horiz-adv-x="1237" d="M63 243l15 -8q171 -85 371 -85q189 0 311 79q135 89 134 250q0 45 -11 97q-23 100 -122.5 161.5t-231.5 75.5q-13 2 -28.5 2h-24.5q-102 0 -199 -26.5t-142 -57.5l47 819h835v-286q-27 27 -47 41q-45 30 -129.5 42.5t-190.5 12.5q-38 0 -114 -2t-110 -2l-40 -1l-18 -391 l43 10q100 19 193 19q146 0 260 -50q93 -40 170 -117q61 -63 94 -146t33 -178q1 -182 -115 -309q-112 -125 -281 -182q-138 -47 -312 -47q-72 0 -128 6.5t-132 21.5l-24 6z" />
<glyph unicode="6" horiz-adv-x="1356" d="M72 578q0 411 316 699q286 260 677 303l68 8l-110 -144l-30 -8q-311 -85 -504 -322q-186 -227 -186 -489q0 -235 129 -382q119 -136 284 -137q135 0 234.5 107t99.5 268q0 155 -93 269q-100 123 -256 123q-64 0 -133.5 -19.5t-145.5 -63.5l152 189l30 10q102 32 192 32 q212 0 348.5 -138t136.5 -356q0 -265 -178 -425q-165 -148 -406 -147q-278 0 -456 189q-169 180 -169 434z" />
<glyph unicode="7" horiz-adv-x="1252" d="M63 1264l111 286h1018l-554 -1289q-25 -63 -30 -77q-15 -44 -15 -74q0 -13 4.5 -39.5t24.5 -42t54 -28.5h-418l593 1355q-27 8 -146.5 24.5t-217.5 16.5q-59 0 -110 -9q-117 -23 -140 -31q-59 -21 -174 -92z" />
<glyph unicode="8" horiz-adv-x="1403" d="M68 407q0 131 87 235q78 93 220 157l44 19l-36 21q-125 72 -186 148q-72 91 -72 207q0 167 151.5 282t354.5 115q265 0 426 -89q184 -102 184 -301q0 -110 -74 -195q-55 -64 -180 -136l-34 -19l34 -17q180 -85 260.5 -185t80.5 -259q0 -191 -203 -316 q-186 -114 -424 -114q-250 0 -430 112q-203 125 -203 335zM313 419q0 -152 119 -222t347 -70q121 0 214.5 84t93.5 179q0 135 -153 224q-110 64 -330 119l-45 12l-49 -25q-100 -51 -148.5 -123t-48.5 -178zM362 1258q0 -131 127 -220q97 -68 275 -112l49 -13l36 25 q78 53 113.5 108.5t35.5 135.5q0 119 -96.5 186.5t-238.5 67.5q-117 0 -201 -40q-100 -49 -100 -138z" />
<glyph unicode="9" horiz-adv-x="1350" d="M74 1031q0 263 172 420q163 148 406 148q280 0 462 -189q170 -178 170 -432q0 -411 -316 -698q-286 -260 -678 -305l-68 -7l110 144l32 7q296 80 491 297t195 454q0 261 -116.5 420t-281.5 159q-133 0 -240 -112.5t-107 -260.5q0 -157 95 -271q102 -123 263 -123 q61 0 127 20t142 63l-151 -189q-45 -15 -72 -21q-87 -23 -137 -23q-205 0 -356 161q-142 152 -142 338z" />
<glyph unicode=":" horiz-adv-x="437" d="M78 110q0 59 39.5 104.5t109.5 45.5q68 0 106 -42t38 -102q0 -59 -39.5 -104.5t-109.5 -45.5q-68 0 -106 41.5t-38 102.5zM91 737q0 59 40 104.5t110 45.5q68 0 106 -42t38 -100q0 -59 -40 -104.5t-110 -45.5q-68 0 -106 41.5t-38 100.5z" />
<glyph unicode=";" horiz-adv-x="418" d="M44 -256l22 21q74 66 115 126t24 81q-40 8 -72 26q-66 38 -67 108q0 61 43.5 99t102.5 38q40 0 70.5 -16.5t49.5 -52.5q25 -47 24 -100q0 -57 -26.5 -117.5t-73.5 -123.5q-25 -32 -55 -62.5t-48 -35.5q-6 -2 -9 -2q-11 -2 -27 -2q-45 0 -73 13zM64 728q0 59 40 104 t110 45q68 0 106 -41.5t38 -100.5t-40 -104.5t-110 -45.5q-68 0 -106 42t-38 101z" />
<glyph unicode="&#x3c;" horiz-adv-x="1320" d="M70 474v121l1171 540v-137l-1017 -466l1011 -458v-135z" />
<glyph unicode="=" horiz-adv-x="1259" d="M70 318v133h1097v-133h-1097zM72 644v135h1097v-135h-1097z" />
<glyph unicode="&#x3e;" horiz-adv-x="1305" d="M70 998v137l1171 -540v-121l-1165 -535v135l1011 458z" />
<glyph unicode="?" horiz-adv-x="1013" d="M70 1317l133 219l24 10q99 38 214 38q174 0 309 -76q148 -83 190 -229q17 -63 17 -118q0 -112 -68 -219q-57 -89 -180 -203q-74 -66 -146 -131q-68 -72 -69 -155q0 -30 4 -48l8 -36l-180 -20l-8 45q-6 32 -5 59q0 104 73 201q47 63 163 159q78 64 124.5 142.5t46.5 160.5 q0 64 -28 119q-45 87 -126 133.5t-185 46.5q-136 0 -279 -79zM280 112q0 59 40 104t110 45q68 0 106 -41.5t38 -102.5q0 -59 -40 -104t-110 -45q-68 0 -106 41.5t-38 102.5z" />
<glyph unicode="@" horiz-adv-x="1597" d="M85 741q0 311 218 530.5t529 219.5q282 0 488 -163q220 -175 220 -436q0 -231 -145.5 -410t-346.5 -179q-85 0 -127 83q-13 27 -25 86l-61 -70q-78 -91 -197 -91q-121 0 -198.5 95.5t-77.5 226.5q0 189 161 331q146 129 295 129q61 0 102.5 -21.5t58.5 -71.5l19 -58 l42 127l176 3l-159 -589q-8 -23 -7 -57q0 -32 8.5 -49t30.5 -17q125 0 232 166.5t107 350.5q0 237 -185 379q-169 129 -411 129q-263 0 -449 -185.5t-186 -449.5q0 -273 190.5 -469t459.5 -196q199 0 339 76q104 55 167 142q21 38 43 78h135q-30 -51 -59 -103 q-87 -119 -214 -193q-180 -104 -415 -104q-311 0 -534.5 223.5t-223.5 536.5zM546 540q0 -72 33 -120.5t107 -48.5q102 0 193 186q82 167 82 303q0 80 -31.5 130t-90.5 50q-100 0 -196.5 -169.5t-96.5 -330.5z" />
<glyph unicode="A" horiz-adv-x="1818" d="M61 0q28 13 49 27.5t42 33.5q30 30 51 68q13 25 36 79l471 1177q8 19 12 33t4 31q0 13 -6 34q-17 55 -80 67h383l515 -1272q13 -38 30.5 -76.5t46.5 -78.5t61.5 -68t79.5 -55h-511q40 4 85 53q15 17 15 42q0 23 -13 58l-171 427h-585l-142 -387q-15 -42 -15 -85 q0 -45 21 -66q36 -34 73 -42h-452zM640 746h466l-231 588z" />
<glyph unicode="B" horiz-adv-x="1362" d="M70 1550h604q203 0 335.5 -93t132.5 -227q0 -144 -56 -213q-28 -34 -139 -96l-26 -15l28 -12q174 -70 248 -146q95 -98 95 -263q0 -191 -167 -333q-178 -152 -447 -152h-600q28 11 44 22.5t31 32.5q23 32 30.5 64.5t7.5 77.5v42v1063v26v23q0 47 -6.5 78.5t-24.5 57 t-39 38.5t-51 25zM436 928l93 -2q131 0 233 53q125 64 125 179q0 9 -4 36q-19 119 -104 174q-65 43 -163 43h-4q-72 0 -114 -19l-62 -26v-438zM438 201l38 -17q91 -42 202 -42q146 0 241 78q108 89 108 256q0 152 -125 234q-110 74 -269 74q-42 0 -85 -5l-110 -17v-561z" />
<glyph unicode="C" horiz-adv-x="1475" d="M61 764q0 352 185 568q218 252 652 252q91 0 173.5 -10.5t177.5 -38.5l45 -14v-271q-63 57 -184 98t-254 41q-246 0 -403 -218q-136 -189 -137 -406q0 -267 188 -447q175 -170 404 -170h3q207 0 430 117l69 36l-120 -273l-21 -9q-59 -27 -151.5 -44t-200.5 -17 q-307 0 -555 190q-301 230 -301 616z" />
<glyph unicode="D" horiz-adv-x="1597" d="M76 0q59 32 89 87q19 36 25.5 64.5t6.5 56.5q-2 27 -2 38v1059v27q0 64 -5.5 95.5t-30.5 65.5q-15 25 -30 35t-48 22h631q314 0 544 -163q279 -199 279 -563t-232 -589q-241 -235 -651 -235h-576zM434 201l85 -10q44 -5 87 -5h15q275 0 448 132q202 158 202 459 q0 324 -204 487q-166 132 -415 132h-4q-93 0 -180 -21l-34 -9v-1165z" />
<glyph unicode="E" horiz-adv-x="1237" d="M63 -2q19 9 39 19q34 19 51 53q25 45 30 93.5t5 128.5l-2 1010v56q0 34 -5 60t-22 55t-36 44.5t-57 32.5h815l40 5l32 14v-288l-47 43q-38 32 -113 46.5t-162 14.5q-55 0 -110 -5.5t-76 -9.5l-19 -4v-438h300q47 0 62 6l30 11v-263q-9 17 -23 31.5t-24 19.5 q-32 17 -86 23t-101 6h-158v-561q11 -4 128 -17t208 -13q114 0 174 20q97 34 135 55t106 78l-112 -324z" />
<glyph unicode="F" horiz-adv-x="1017" d="M49 0q36 15 53 27q25 17 40 45q27 47 33.5 96.5t6.5 123.5v1011v23q0 47 -5 76.5t-21 61t-35 49.5t-57 37h813q28 0 38 4q19 2 34 13v-286l-47 45q-38 32 -110 45.5t-167 13.5q-64 0 -110.5 -4t-74.5 -9l-18 -4v-438h298h26h19q13 4 17 4l33 11v-263q-9 15 -19 27 q-15 17 -31 26q-30 17 -76.5 21t-103.5 4l-164 2v-476q0 -25 -1 -47.5t-1 -45.5q0 -40 5.5 -71t22.5 -52q25 -32 38 -43.5t44 -26.5h-480z" />
<glyph unicode="G" horiz-adv-x="1661" d="M72 743q0 377 241 593q258 231 746 231q80 0 155 -10q21 -2 167 -26l34 -6v-275q-81 68 -178.5 108t-198.5 40q-328 0 -513.5 -182t-185.5 -481q0 -261 203 -443t479 -182q142 0 294 38l23 5v417q0 44 -6 71.5t-27 59.5q-32 47 -81 70h371q-11 -25 -14 -39t-3 -37v-22 v-595q0 -23 4 -36l8 -31l-65 -11q-117 -21 -243 -35t-259 -14q-379 0 -646 193q-305 220 -305 599z" />
<glyph unicode="H" horiz-adv-x="1760" d="M91 1550h472q-30 -13 -49.5 -28.5t-34.5 -39.5q-21 -32 -27.5 -68.5t-6.5 -83.5v-25l-2 -377h857l2 385v25q0 45 -7 78t-29 67q-15 25 -32.5 38.5t-47.5 28.5h472q-32 -15 -49.5 -28.5t-34.5 -39.5q-23 -34 -27.5 -64.5t-4.5 -87.5v-25v-1061v-39q0 -42 6 -73.5t26 -67.5 q15 -25 32.5 -37t53.5 -27h-470q34 17 50 30.5t30 41.5t23 62.5t9 81.5v34l-2 512h-855v-518v-34q0 -36 6.5 -73t27.5 -73q13 -25 31.5 -38t52.5 -26h-466q17 9 34 21q30 19 43.5 47.5t22 65.5t8.5 82v34v1063v25q0 45 -7 78t-25 62.5t-35 43t-47 28.5z" />
<glyph unicode="I" horiz-adv-x="763" d="M165 0q25 13 38 21q30 19 44 48.5t22.5 66t8.5 82.5v34v1061v25q0 53 -5.5 81t-30 68t-77.5 63h472q-30 -13 -49.5 -28.5t-33.5 -40t-23.5 -78.5t-9.5 -98v-1059v-34q0 -45 5.5 -74.5t26.5 -71.5q13 -25 33 -39t52 -27h-473z" />
<glyph unicode="J" horiz-adv-x="676" d="M0 -538q131 97 186 242q19 53 27.5 106.5t8.5 117.5v1336v41.5v28.5q0 53 -5 83t-22 58.5t-35 44t-52 30.5h472q-30 -17 -49 -33.5t-35.5 -43t-23 -68t-6.5 -92.5v-44v-1400q0 -68 -28.5 -139t-71.5 -124q-61 -70 -197 -114q-98 -31 -152 -31q-9 0 -17 1z" />
<glyph unicode="K" horiz-adv-x="1542" d="M78 1550h471q-30 -11 -49 -25.5t-36 -41.5q-23 -34 -27.5 -64t-4.5 -87v-25v-1061q0 -61 4.5 -97.5t27.5 -82.5q13 -23 35 -39t50 -27h-468q30 17 48.5 32t30.5 41.5t20.5 66.5t8.5 87v25v1063v24q0 53 -5.5 81.5t-28.5 64.5q-15 25 -31 38t-46 27zM460 801l406 535 q11 17 22.5 47t11.5 57q0 28 -10 45q-21 47 -75 65h447l-552 -699l485 -639q23 -30 47 -53.5t60 -50.5q66 -49 94.5 -66t83.5 -42h-45.5t-62.5 -2q-93 0 -172.5 6.5t-112.5 23.5q-47 23 -53 27q-36 21 -79 81z" />
<glyph unicode="L" horiz-adv-x="1244" d="M68 0q21 9 44 19q32 19 50 53t24.5 74t6.5 87v44v1023v26q0 59 -4.5 91t-27.5 68q-15 27 -31 38.5t-52 26.5h475q-34 -15 -51 -27.5t-34 -39.5q-23 -38 -28.5 -77.5t-5.5 -115.5v-1089q17 -6 122 -19t206 -13q116 0 181 24q81 32 105 42q53 22 129 81l-120 -316h-989z " />
<glyph unicode="M" horiz-adv-x="2262" d="M68 0q28 21 42.5 35t33.5 46q40 66 51 156l150 1116q2 17 4.5 34t2.5 36q0 36 -19.5 65.5t-31 40.5t-38.5 21h425l5 -46q4 -17 12.5 -38.5t14.5 -35.5l441 -1013l408 1036q8 17 9 23q6 13 6 24q2 25 -6 50h438q-28 -9 -46.5 -25.5t-31.5 -43t-13 -51.5q4 -36 6 -56 l151 -1158q8 -64 17.5 -88t28.5 -50.5t41 -47.5q17 -15 44 -30h-491q78 23 99 72q9 19 13 41.5t4 45.5v30q-4 19 -4 25l-131 1093l-530 -1330q-19 15 -43 37t-46 45q-40 38 -95 146q-15 32 -55 123l-409 985l-148 -1103q-4 -27 -4 -55q0 -27 3 -41t12 -34q28 -57 89 -80 h-409z" />
<glyph unicode="N" horiz-adv-x="1724" d="M68 0q25 9 51 27q34 23 54 54t28.5 71.5t8.5 71.5v20v1067q0 45 -4.5 81t-21.5 63q-27 38 -48.5 58t-63.5 37h377q4 -28 8 -36q11 -21 15 -27q13 -21 32 -47l854 -1078v940q0 61 -6.5 96.5t-32.5 77.5q-15 25 -36 42t-53 32h445q-76 -30 -110 -95q-13 -23 -21.5 -52 t-8.5 -71v-34l1 -1376q-55 17 -94.5 37t-88.5 58q-32 23 -61 51q-13 13 -81 101l-830 1047l2 -968v-24q0 -45 10.5 -83.5t47.5 -89.5q9 -11 38 -29t42 -22h-453z" />
<glyph unicode="O" d="M68 771q0 326 214 561q233 256 605 256q449 0 691 -269q210 -236 210 -586q0 -307 -217 -532q-235 -243 -601 -243q-402 0 -652 232t-250 581zM339 756q0 -275 171.5 -456t436.5 -181q258 0 425 205q153 189 153 441q0 269 -140 446q-162 204 -461 204h-3 q-271 0 -434 -204q-148 -186 -148 -455z" />
<glyph unicode="P" horiz-adv-x="1237" d="M63 1550h581q214 0 364 -101q167 -111 167 -299q0 -193 -152 -324t-354 -131q-91 0 -176 31q47 0 85 11q8 2 83 32q110 42 171 112q75 86 75 207q0 46 -7 81q-17 106 -103.5 159t-216.5 53q-45 0 -97 -6l-72 -9v-1118q0 -55 5.5 -95.5t30.5 -74.5q15 -23 37 -43t50 -35 h-468q38 19 46 25q19 13 35 49t21.5 82.5t5.5 93.5v1063v25q0 51 -4.5 80t-27.5 64q-15 23 -32 38t-47 30z" />
<glyph unicode="Q" horiz-adv-x="1864" d="M70 765q0 398 263 624q238 204 596 204h3q352 0 612 -231t260 -551q0 -218 -88 -392q-99 -199 -297 -317l-32 -19l36 -32q153 -136 271 -214q152 -100 265 -129q49 -13 97.5 -18.5t103.5 -5.5l-29 -23q-36 -36 -115.5 -66.5t-155.5 -30.5q-38 0 -56.5 2t-56.5 13 q-104 28 -263.5 125t-350.5 247l-34 26l-34 -7q-30 -6 -70 -11.5t-70 -5.5q-332 0 -586 225q-269 239 -269 587zM339 765q0 -254 182 -451t436 -197q280 0 435 209q137 184 137 470q0 237 -173 432q-181 204 -422 204h-2q-258 0 -430 -206q-163 -195 -163 -461z" />
<glyph unicode="R" horiz-adv-x="1580" d="M89 1550h591q197 0 326 -93q146 -104 146 -296q0 -123 -102.5 -243t-251.5 -160l-23 -6l379 -479q38 -45 102 -102q53 -45 98.5 -73t96.5 -56q42 -23 97 -42q-6 -2 -62 -4t-133 -2h-29q-117 0 -169 12.5t-130 88.5q-63 61 -150 172q-40 51 -153 201q-53 66 -138 201 q-64 102 -84 134q34 0 87 12.5t106 35.5q95 42 148 104q66 78 66 182q0 11 -1.5 27t-1.5 26q-15 95 -98.5 152.5t-206.5 57.5q-51 0 -116 -15l-36 -10v-1123v-38q0 -51 3 -78.5t18 -58t30 -44.5t48 -33h-451q32 15 52 30t34 46.5t19 64.5t5 75v34v1065q0 70 -8.5 103 t-27.5 64q-27 44 -80 68z" />
<glyph unicode="S" horiz-adv-x="1252" d="M66 322l33 -23q236 -166 451 -166h3q163 0 262.5 63.5t99.5 159.5q0 121 -90 198t-363 194q-197 85 -284 205q-70 97 -70 218q0 216 170 322q150 93 414 93q99 0 176 -10.5t163 -37.5l24 -7v-265l-28 26q-64 59 -163.5 97t-202.5 38q-116 0 -199 -54t-83 -145 q0 -121 106 -205q76 -61 281.5 -149t307.5 -184q116 -110 116 -241q0 -229 -207 -366q-188 -123 -453 -123q-76 0 -135.5 6t-123.5 23l-142 36z" />
<glyph unicode="T" horiz-adv-x="1362" d="M70 1279l83 288l48 -12l70 -5h921h30q25 0 36 4l45 15l-83 -298q-4 19 -17 43t-33 35t-39 15t-42 4q-23 -2 -34 -2h-250v-1129q0 -51 6.5 -87t36 -79t90.5 -71h-480q34 19 48 28q21 17 32 49.5t18 68.5t7 97v1123h-243q-45 0 -90.5 -6.5t-81.5 -23.5q-17 -8 -42.5 -28 t-35.5 -29z" />
<glyph unicode="U" horiz-adv-x="1580" d="M49 1550h459q-25 -11 -38 -21.5t-34 -37.5q-13 -17 -23.5 -58.5t-10.5 -62.5v-817q0 -208 100 -316q95 -102 263 -102h33q13 2 20 1q152 15 251.5 105.5t99.5 211.5v854q0 63 -4 95t-26 76q-13 27 -28.5 42t-45.5 30h453q-40 -21 -53.5 -34.5t-28.5 -41.5t-21.5 -68 t-6.5 -82v-24l2 -1075q0 -57 8.5 -90t28.5 -74q13 -23 35 -38q9 -8 47 -23h-362v152q-78 -81 -187 -133.5t-239 -52.5q-258 0 -406 115q-176 138 -176 425v852q0 36 -12 76t-31 65q-25 34 -67 51z" />
<glyph unicode="V" horiz-adv-x="1553" d="M76 1550h331q-6 -23 -5 -38q0 -25 11 -65.5t25 -80.5l397 -1084l372 1008q23 63 23 106q0 9 -4 44.5t-29 63.5q-17 19 -55 46h355l-614 -1620q-23 9 -71 42.5t-102 76.5q-34 28 -61.5 75.5t-53.5 118.5l-371 1030q-21 61 -28.5 82.5t-23.5 52.5q-25 49 -45.5 80t-50.5 62 z" />
<glyph unicode="W" horiz-adv-x="2332" d="M55 1550h349q-6 -8 -8 -12q-2 -6 -2 -15q0 -38 10 -77q2 -8 20 -65l355 -1091l303 998q8 30 11.5 47.5t3.5 41.5q0 28 -5 66.5t-35 66.5q-21 21 -59 40h349q-11 -34 -9 -50q0 -36 9 -76.5t23 -80.5l341 -1049l299 987q19 64 19 98q0 21 -11.5 62t-40.5 67.5t-77 41.5h372 l-495 -1616q-17 8 -78 49q-68 47 -104 76.5t-63.5 81.5t-48.5 119l-276 854l-368 -1180q-8 4 -72 51q-55 40 -108 79q-32 25 -61.5 73.5t-48.5 108.5l-346 1071q-9 36 -20.5 63.5t-31.5 59.5t-42 57.5t-54 52.5z" />
<glyph unicode="X" horiz-adv-x="1701" d="M63 0l657 830l-377 545q-19 25 -37 50.5t-48.5 55t-58.5 46.5q-8 4 -44 23h25h256h32q9 0 32 -10.5t42 -38t30 -44.5l313 -453l225 299q40 59 53 82q32 56 32 88q0 4 -1 9q-6 28 -29.5 43t-71.5 25h440l-538 -696l432 -644q27 -40 47 -66q34 -44 68 -74t70 -51 q21 -11 34 -19h-19h-242q-25 0 -49.5 7.5t-41.5 17.5q-28 19 -51 47q-15 19 -38 53l-370 549l-350 -464q-17 -23 -28 -51q-17 -38 -17 -66q0 -7 1 -13q4 -23 46.5 -51.5t56.5 -28.5h-481z" />
<glyph unicode="Y" horiz-adv-x="1532" d="M47 1550h25h208q30 0 47.5 -4t44 -15.5t39.5 -23.5t34 -46l366 -591l301 450q11 19 22.5 52.5t11.5 67.5v17q-6 34 -45 66q-13 11 -46 27h423l-580 -872v-424q0 -63 4.5 -99t39.5 -81q15 -19 34 -36q27 -25 51 -38h-479q27 15 45.5 32t34.5 45.5t21 64.5t5 83v36l2 415 l-419 673q-30 55 -48 78.5t-43 46.5q-34 34 -53 48t-46 28z" />
<glyph unicode="Z" horiz-adv-x="1502" d="M55 0l847 1366q-15 4 -229.5 10.5t-229.5 6.5q-81 0 -155 -30q-27 -11 -142 -74l125 271h1044l-858 -1349q13 -2 199.5 -14.5t300.5 -12.5h58q34 4 50 4q99 0 193 40q32 13 174 91l-136 -309h-1241z" />
<glyph unicode="[" horiz-adv-x="674" d="M63 -328q23 17 32 27q25 25 36 58t14 64t3 73v1400v28v23q0 64 -6.5 90t-25.5 54q-11 19 -22 31.5t-31 29.5h530v-127h-239v-1624h243v-127h-534z" />
<glyph unicode="\" horiz-adv-x="896" d="M64 1550h175l733 -1878h-171z" />
<glyph unicode="]" horiz-adv-x="685" d="M76 -201h244v1624h-239v127h531q-19 -15 -31.5 -28.5t-23.5 -32.5q-17 -28 -23.5 -68t-6.5 -85v-42v-1400q0 -40 2.5 -71t13 -63.5t25 -49.5t44.5 -38h-536v127z" />
<glyph unicode="^" horiz-adv-x="869" d="M55 1163l385 356l378 -360q-61 0 -86 5t-81 26t-126 59q-51 28 -85 53q-32 -27 -101 -63q-83 -45 -146.5 -60.5t-137.5 -15.5z" />
<glyph unicode="_" horiz-adv-x="1413" d="M11 -288h1455v-68h-1455v68z" />
<glyph unicode="`" horiz-adv-x="738" d="M63 1334l125 172l504 -362z" />
<glyph unicode="a" horiz-adv-x="1225" d="M70 284q0 146 78.5 217t262.5 115q114 21 227 43q131 40 131 131q0 9 -4 32q-11 55 -70.5 88t-152.5 33q-121 0 -260 -62l-58 -27l161 235l28 2q70 9 144 10q78 0 144 -12.5t134.5 -49.5t111 -116.5t42.5 -174.5l-2 -435v-36q0 -42 9.5 -72.5t37.5 -47.5q66 -41 118 -41 h2q15 -1 23 1l-93 -162h-11q-19 1 -57 5q-50 6 -95 21q-64 25 -106 74q-47 55 -48 123l2 392q-55 -19 -110 -37t-106 -29q-153 -30 -208 -87q-42 -42 -42 -120t72 -132.5t180 -54.5q64 0 133 23l41 15l-140 -188l-87 -5q-193 0 -318 108q-114 99 -114 221z" />
<glyph unicode="b" horiz-adv-x="1286" d="M70 1550h207q28 0 57.5 12t51.5 29v-1422q64 -38 165 -38q167 0 290 94q148 114 148 315q0 205 -112 309q-95 87 -242 87q-85 0 -154 -29l-41 -17l117 199l40 8q72 15 132 15q212 0 351.5 -151t139.5 -412q0 -263 -218 -413q-229 -157 -661 -157l-254 21q17 8 32 25 q8 9 23 31t20 41.5t5 52.5v1212q0 51 -7 79.5t-33 60.5q-15 17 -27.5 27.5t-29.5 20.5z" />
<glyph unicode="c" horiz-adv-x="1193" d="M66 542q0 269 209 426q191 144 475 144q72 0 118.5 -4.5t101.5 -18.5l17 -3v-251l-23 21q-57 53 -131.5 79t-158.5 26q-153 0 -263 -116t-110 -280q0 -184 131 -309q138 -133 356 -133q72 0 144 20t146 62l63 36l-120 -222l-47 -13q-131 -38 -246 -38q-294 0 -482 172 q-180 165 -180 402z" />
<glyph unicode="d" horiz-adv-x="1392" d="M70 549q0 214 140 379q161 189 423 190q99 0 197 -38t163 -108v390q0 51 -7.5 82.5t-33.5 61t-60 44.5h220q28 0 58.5 15t40.5 26v-1403q0 -47 4.5 -74t23.5 -58t70 -56h-318v650q0 133 -95 221t-225 88q-180 0 -275 -122q-83 -106 -83 -272q0 -191 132 -322 q119 -117 267 -118q99 0 175 44l36 20l-139 -212l-38 -4q-39 -5 -76 -5h-13q-252 0 -414 153q-172 161 -173 428z" />
<glyph unicode="e" horiz-adv-x="1257" d="M63 557q0 258 168.5 410.5t429.5 152.5q210 0 364 -137q161 -144 161 -354v-49h-860q0 -197 108 -315q129 -140 396 -140q148 0 290 85l66 40l-116 -220l-43 -15q-70 -25 -142 -35t-157 -10q-280 0 -472.5 164.5t-192.5 422.5zM333 724l609 -2q-30 121 -106 180t-190 59 q-117 0 -200.5 -61t-112.5 -176z" />
<glyph unicode="f" horiz-adv-x="786" d="M63 925l121 155v169q0 85 67 175t164 131q49 23 112.5 31.5t139.5 8.5q63 0 114 -4.5t66 -10.5l-159 -180q-15 17 -53 30.5t-87 13.5q-68 0 -107 -38q-23 -25 -33 -56t-10 -60v-210h201h36q21 0 39.5 5.5t47.5 19.5l2 -226q-21 30 -51.5 38.5t-45.5 8.5h-229l2 -716 q0 -36 5.5 -61.5t24.5 -72.5q11 -27 28 -44q11 -9 42 -32h-411q40 23 66 64q17 27 22 59t5 78v724h-119z" />
<glyph unicode="g" horiz-adv-x="1341" d="M-80 -250q0 91 74 144q63 45 146 45q51 0 78.5 -7.5t56.5 -16.5q-27 -17 -51 -34q-25 -27 -25 -89q0 -114 115 -173q106 -53 296 -53q152 0 267 63q129 70 129 180q0 131 -152 180q-110 36 -331 36q-189 0 -261.5 35t-72.5 133q0 34 40 61q17 11 84 40l56 26l-34 12 q-119 40 -189 123q-80 95 -80 227q0 172 136.5 286t329.5 114h749l-15 -34q-21 -53 -42 -93t-36 -47.5t-44 -7.5q-32 0 -84 8.5t-99 17.5l-50 8q81 -57 120 -116q47 -72 47 -170q0 -195 -189 -284q-106 -49 -341 -84q-28 -4 -48.5 -18t-20.5 -44q0 -38 50.5 -42.5 t107.5 -4.5q286 0 424 -65q182 -85 182 -297q0 -191 -207 -302q-176 -94 -421 -94h-5q-330 0 -521 110q-169 97 -169 227zM299 705q0 -102 90 -188.5t196 -86.5q102 0 177 67.5t75 169.5q0 93 -77 168q-85 83 -197 84q-117 0 -190.5 -58t-73.5 -156z" />
<glyph unicode="h" horiz-adv-x="1273" d="M76 0q36 15 52 28.5t30 40t18 51t4 56.5v40v1139q0 51 -4.5 79.5t-27.5 60.5t-68 55l200 2h38q17 8 25 9q28 11 45 30v-619q53 63 151.5 104.5t203.5 41.5q38 0 75 -6q148 -23 229.5 -125t81.5 -246v-548q0 -49 5 -80.5t25 -59.5q9 -15 22 -25.5t43 -27.5h-409 q28 13 46 26.5t33 39t18 48t3 72.5v464q0 136 -59 216q-68 93 -202 93q-146 0 -211 -86q-55 -72 -55 -199v-471q0 -32 1 -61.5t17 -63t41 -53.5q13 -11 40 -25h-411z" />
<glyph unicode="i" horiz-adv-x="659" d="M127 0q19 9 36 27q8 8 27.5 31t25.5 46t6 63v737q0 49 -3 71.5t-19 46.5t-27.5 33.5t-41.5 24.5l180 4q30 0 65 11t62 30l2 -951v-49q4 -27 19 -52.5t35.5 -45t37.5 -27.5h-405zM172 1377q0 59 37 101.5t107 42.5t110 -44.5t40 -104.5q0 -59 -37 -101.5t-107 -42.5 t-110 44.5t-40 104.5z" />
<glyph unicode="j" horiz-adv-x="621" d="M9 -542q63 32 115 84.5t86 127.5q25 55 30.5 115t5.5 128v991q0 23 -1.5 55t-24.5 68q-15 23 -29.5 33t-35.5 20h178q19 0 38 5.5t31 9.5q32 9 60 30v-1328q0 -74 -36 -136q-47 -81 -155 -137q-76 -38 -134.5 -52t-127.5 -14zM197 1377q0 59 37 101.5t107 42.5t109 -44.5 t39 -102.5q0 -59 -37 -101.5t-107 -42.5t-109 44.5t-39 102.5z" />
<glyph unicode="k" horiz-adv-x="1239" d="M76 0q19 9 36 27q8 8 26.5 31t25.5 47t7 62v1197q0 51 -3 74t-20 47.5t-32.5 39.5t-35.5 25h180q17 0 31 1t32 6.5t36 17t27 16.5l2 -1417v-49q4 -27 18.5 -52.5t34 -44.5t40.5 -28h-405zM428 602l264 296q49 57 49 106q0 15 -3 30.5t-17 25.5t-39 20h383l-402 -449 l377 -489q28 -38 74 -82.5t78 -59.5q-2 -2 -31.5 -2h-52.5h-24q-63 0 -98 2t-66 10.5t-59.5 27.5t-59.5 61z" />
<glyph unicode="l" horiz-adv-x="646" d="M148 0q19 9 36 27q8 8 25.5 30.5t25.5 49t8 60.5v1197q0 51 -3 74t-20 48.5t-29 36.5q-17 19 -34 27h175q36 0 57.5 6.5t32.5 12.5q9 4 38 22v-1417v-49q4 -27 18.5 -52.5t34 -44.5t40.5 -28h-405z" />
<glyph unicode="m" horiz-adv-x="2012" d="M55 1080h214q15 0 25 2q11 2 37.5 13t47.5 28v-187q51 78 125 125q91 59 201 59q36 0 87 -10q108 -23 167 -64q49 -34 111 -125l8 -10l11 15q78 100 168 145t204 45q45 0 111 -10q155 -21 237 -164q64 -114 65 -245l2 -509v-21q0 -34 2.5 -52t19.5 -51q8 -13 35.5 -34 t50.5 -30h-423q25 11 43 26.5t33 41t18 47t3 71.5l2 452q0 131 -69 222q-74 99 -199 99q-114 0 -170 -46q-89 -72 -89 -263v-476v-47q4 -30 28 -68q11 -19 24.5 -32.5t40.5 -26.5h-423q55 19 86 64q15 25 19.5 51.5t4.5 66.5v434q0 135 -70 235q-78 110 -199 110 q-125 0 -196 -77t-71 -208v-473q0 -25 1 -55.5t20 -69.5q13 -30 36 -49.5t43 -28.5h-418q59 23 83 72q17 32 20 58.5t3 87.5l-2 665v47q0 40 -5 57t-20 38t-35 33t-48 22z" />
<glyph unicode="n" horiz-adv-x="1269" d="M55 0q34 15 51 28.5t33 43.5t19 56.5t3 87.5l-2 674q0 68 -5.5 92t-21.5 46t-29.5 31.5t-36.5 20.5h195q34 0 60 11.5t48 33.5l-1 -153q53 64 151.5 105t204.5 41q36 0 74 -6q148 -23 229 -125t81 -246l2 -542q0 -61 4 -85.5t25 -54.5q13 -17 22 -27q19 -19 42 -32h-404 q25 11 39.5 24.5t32.5 41t20.5 51t2.5 74.5v457q0 138 -57 218q-66 93 -202 93q-148 0 -213 -86q-53 -70 -53 -199v-471q0 -32 1 -63.5t14.5 -59t31.5 -45.5t52 -35h-413z" />
<glyph unicode="o" horiz-adv-x="1331" d="M76 538q0 241 153 400q167 172 449 172q277 0 444 -182q149 -162 149 -382q0 -235 -161 -402q-171 -176 -432 -176q-275 0 -438.5 162t-163.5 408zM305 561q0 -197 99.5 -319.5t273.5 -122.5t271 127q87 116 87 294q0 161 -91 280q-102 135 -267 135q-169 0 -271 -113.5 t-102 -280.5z" />
<glyph unicode="p" horiz-adv-x="1350" d="M68 1080h180q44 0 73 12.5t52 29.5v-171l27 27q63 63 161 99.5t204 36.5q212 0 357 -133q168 -155 168 -441q0 -233 -123 -390q-146 -186 -424 -186q-47 0 -86 4t-70 15l-34 11l-123 195l99 -39q42 -17 84.5 -24t91.5 -7q171 0 260.5 115t89.5 302q0 193 -115 309 q-104 104 -252 104q-129 0 -216 -78q-97 -87 -97 -231v-926q0 -38 5 -79.5t18 -67t36.5 -43t42.5 -22.5h-405q15 9 35 27t31 39q19 34 24 79.5t5 60.5v1181q0 23 -1 56t-22 65q-11 19 -30 39t-46 31z" />
<glyph unicode="q" horiz-adv-x="1348" d="M63 496q0 267 168 421q180 163 523 163h540q-51 -19 -80 -63q-13 -21 -20.5 -50t-7.5 -48v-1216q0 -59 7.5 -94t37.5 -67q21 -25 53 -40h-424q51 15 82 57q19 28 23.5 85t4.5 66v1177q-17 13 -89 26t-146 13q-205 0 -316 -98q-119 -106 -120 -316q0 -169 128 -282 t304 -113q63 0 106 18l72 28l-115 -180l-27 -6q-66 -15 -130 -15q-237 0 -400 142q-174 152 -174 392z" />
<glyph unicode="r" horiz-adv-x="805" d="M63 0q13 8 23.5 17.5t38.5 39.5q32 42 32 114v733q0 49 -2.5 70t-19 46.5t-30.5 36t-39 23.5h180q19 0 37 5.5t30 9.5q32 9 60 30v-197q21 55 61 98t100 67q27 13 54.5 19t55.5 6q13 0 30.5 -2t26.5 -2l40 -4v-220q-64 42 -125 42q-15 0 -57 -7q-91 -19 -138.5 -98 t-47.5 -183v-468q0 -38 3 -58.5t17 -45.5t35 -44.5t40 -27.5h-405z" />
<glyph unicode="s" horiz-adv-x="1028" d="M63 256l30 -19q91 -57 194 -86.5t196 -29.5q112 0 183 29.5t84 90.5q4 11 4 20v19q0 83 -114 133q-135 51 -267 102q-140 63 -201 139q-51 64 -51 142q0 167 125 246q114 72 330 72q72 0 130 -5.5t122 -22.5l15 -4v-199l-15 7q-57 30 -134.5 47.5t-147.5 17.5 q-95 0 -154 -26.5t-59 -81.5q0 -21 12 -49q21 -45 201 -110q125 -44 182 -63q114 -42 172 -108t66 -153q0 -174 -87 -267q-123 -131 -432 -131q-74 0 -144 11.5t-136 37.5l-29 12z" />
<glyph unicode="t" horiz-adv-x="837" d="M63 909v101l68 19q49 13 86 43.5t63 73.5q36 61 51.5 122.5t15.5 135.5l2 45h100v-369h224q34 0 61.5 6.5t44.5 18.5v-243q-21 27 -45.5 37t-60.5 10h-23h-201v-568q0 -81 24.5 -138t87.5 -89q44 -23 102 -23q34 0 65.5 7.5t50.5 18.5l-129 -174q-21 -8 -49.5 -11.5 t-52.5 -3.5q-95 0 -170 47.5t-114 139.5t-39 196v598h-162z" />
<glyph unicode="u" horiz-adv-x="1261" d="M55 1080h176h30q27 0 50.5 6.5t35.5 12.5q8 4 28 17v-665q0 -153 70 -229q57 -61 161 -74q11 -2 36 -2q117 0 189.5 93t72.5 219l2 396v21q0 53 -3 78t-17.5 52.5t-36 45.5t-42.5 29h163h47q30 0 49.5 5.5t30.5 11.5q4 2 28 15v-915v-70q4 -32 23 -64q13 -19 35 -38 t37 -25h-314v157q-57 -91 -139 -136q-97 -53 -246 -53q-161 13 -258 121q-106 117 -106 318l2 491v30q0 27 -11 70q-4 15 -34.5 43.5t-58.5 38.5z" />
<glyph unicode="v" horiz-adv-x="1407" d="M55 1080h259q11 0 19 2q6 2 31 11l36 17l2 -34q0 -27 17 -64l358 -779l297 642q23 45 23 84q0 6 -5 35t-29.5 52t-54.5 34h347l-535 -1129q-9 6 -55 34q-55 36 -79 55q-34 27 -61 57q-38 44 -57 87l-320 706q-17 38 -23 48q-15 30 -51 68q-15 17 -45 36q-44 28 -74 38z " />
<glyph unicode="w" horiz-adv-x="1991" d="M70 1080h193q25 0 51.5 10.5t45.5 29.5l8 -51q4 -21 5 -31q0 -2 12 -32l274 -731l250 655q8 17 8 42q0 27 -9.5 47.5t-32.5 41.5q-13 11 -30 19h314v-53q0 -19 7 -34t14 -31l252 -684l245 614q6 17 11.5 39t5.5 37q0 17 -7.5 41.5t-27.5 42t-52 28.5h320l-461 -1125 q-13 6 -50 29.5t-69 47.5q-57 47 -81 114l-239 631l-318 -821q-13 4 -56 28.5t-75 50.5t-53 52.5t-38 69.5l-298 781q-19 49 -58 95q-15 19 -36 32q-4 4 -25 15z" />
<glyph unicode="x" horiz-adv-x="1377" d="M63 0l507 566l-303 393q-11 17 -26 34q-21 25 -38 38l-74 49h24h190q45 0 66 -8.5t43 -23.5t37 -36l231 -302l180 224q11 13 23.5 42.5t8.5 48.5t-30.5 35t-39.5 20h405l-447 -500l281 -370q25 -30 49 -60q40 -45 87 -89q32 -28 50.5 -41.5t27.5 -19.5h-27h-231 q-19 0 -28 4q-17 9 -27 13q-23 11 -35 22.5t-27 30.5l-266 358l-255 -301q-6 -9 -15.5 -29t-5.5 -39q2 -17 25.5 -38t33.5 -21h-394z" />
<glyph unicode="y" horiz-adv-x="1371" d="M45 -415l199 146q63 -57 142 -57q76 0 137 59q51 49 83 127l63 157q-30 27 -59 64q-15 21 -26.5 39t-18.5 35l-357 779q-9 23 -26 48.5t-41.5 45.5t-32.5 25q-19 15 -45 27h223q23 0 36 -4q4 0 34 -15q36 -11 59 -64l354 -792l264 670q18 45 18 90q0 14 -3 38 q-4 24 -38 52q-25 21 -36 25h341l-516 -1215q-49 -116 -138 -204q-112 -110 -244 -133q-72 -11 -131 -11q-64 0 -120 15t-121 53z" />
<glyph unicode="z" horiz-adv-x="1265" d="M63 0l651 909q-19 6 -162 15.5t-175 9.5q-80 0 -136 -27q-63 -40 -99 -60l110 233h845l-621 -887q9 -4 89 -13q182 -23 291 -23h34q23 4 31 4q108 13 176 47q28 15 104 59l-132 -269z" />
<glyph unicode="{" horiz-adv-x="577" d="M63 610l32 11q27 9 32 14q19 13 28 19q42 28 55.5 81t13.5 131v401q0 70 17 128t51 93t76.5 48.5t89.5 13.5q21 0 40 -4l14 -2l-10 -4q-23 -11 -44 -21q-28 -17 -51 -53q-42 -63 -41 -163v-414q0 -55 -10 -101q-15 -78 -55 -117q-21 -21 -49 -34.5t-47 -20.5l-14 -6 l16 -8q25 -11 51 -23.5t45 -29.5q40 -40 55 -115q9 -47 10 -102v-415q0 -100 41 -163q23 -36 49 -53q32 -15 46 -21l9 -4l-13 -2q-19 -4 -42 -4q-44 0 -87 13.5t-75 45.5q-70 76 -71 224v397q0 80 -13 132t-55 81q-15 9 -30 19.5t-30 16.5z" />
<glyph unicode="|" horiz-adv-x="322" d="M91 -498v2046h133v-2046h-133z" />
<glyph unicode="}" horiz-adv-x="577" d="M70 -324l10 4q23 11 45 21q28 17 51 53q42 63 42 163l-2 415q0 53 12.5 115.5t53.5 101.5q19 19 48.5 32.5t48.5 20.5l15 8l-13 6q-44 19 -51 22q-27 13 -46 33q-40 40 -57 115q-9 45 -9 103l2 414q0 100 -42 163q-17 27 -38 44q-9 8 -59 30l-9 4l13 2q19 4 42 4 q44 0 89 -13.5t76 -45.5q70 -76 70 -224v-401q0 -83 11.5 -133.5t54.5 -78.5q21 -13 29 -17q13 -8 32 -16l34 -11l-36 -11q-9 -4 -23 -12q-23 -15 -36 -24q-42 -28 -55 -81.5t-13 -131.5v-397q0 -70 -17 -128t-51 -93t-77 -48.5t-90 -13.5q-23 0 -42 4z" />
<glyph unicode="~" horiz-adv-x="1297" d="M70 1256l11 21q55 85 108 133q68 61 148 73q34 6 68 6q106 0 282.5 -75.5t244.5 -75.5q27 0 40 1.5t34 13.5q45 21 76 55q34 47 57 75l9 14l101 -63l-12 -15q-66 -89 -106 -125q-61 -55 -140 -74q-28 -8 -65 -7q-89 0 -270.5 76.5t-251.5 76.5q-21 0 -50.5 -5t-59.5 -25 q-49 -34 -112 -125l-15 -23z" />
<glyph unicode="&#xa1;" horiz-adv-x="490" d="M72 964q0 59 40 104.5t110 45.5q68 0 106 -41.5t38 -100.5t-40 -104.5t-110 -45.5q-68 0 -106 42t-38 100zM85 -455l53 1141h169l43 -1063q0 -45 29 -80q21 -28 57 -41l-313 -2h-9q-17 0 -27 11q-6 6 -2 34z" />
<glyph unicode="&#xa2;" horiz-adv-x="1045" d="M74 746q0 102 33 195t96.5 179.5t169.5 139.5q119 61 205 60v228h131v-226q21 2 36 2q17 0 96 -11q28 -4 30 -4q23 -8 46 -15v-214q-25 23 -48.5 39t-50 25.5t-54 15t-54.5 5.5v-786q68 0 128 28.5t88.5 48.5t58.5 52l-55 -247l-102 -26q-57 -11 -74 -14t-44 -3v-220 h-132v222q-49 0 -116.5 21.5t-126.5 57.5q-135 83 -198 201t-63 246zM294 775q0 -108 40.5 -197t116.5 -133q47 -28 79 -40q12 -4 48 -13v766q-99 -19 -154 -61q-72 -53 -100 -138q-15 -42 -22.5 -90.5t-7.5 -93.5z" />
<glyph unicode="&#xa3;" horiz-adv-x="1142" d="M66 135q0 99 76 147t186 48q74 0 142 -21l40 -12q13 13 21.5 42.5t8.5 81.5q0 68 -12.5 110.5t-48.5 112.5l-45 91l-239 -2v140l131 -2l-36 59q-44 66 -64.5 135.5t-20.5 133.5q0 97 48 181t135 136q63 36 126.5 52t131.5 16q64 0 129 -13q40 -8 115 -33l63 -20l-2 -251 q-9 32 -95 80q-99 53 -191 53q-45 0 -82 -12.5t-75 -42.5q-61 -53 -61 -129q0 -42 21 -92t53 -97l108 -152h267v-140h-191q25 -38 47.5 -111t22.5 -148q0 -17 -5.5 -62t-23.5 -90.5t-53 -96.5l23 -9q30 -13 61.5 -19t59.5 -6h29q21 4 30 4q47 6 96.5 25.5t81.5 40.5l-2 -250 q-30 -17 -103 -36t-141 -19h-23q-13 0 -36 4q-64 11 -121 40.5t-97 63.5l-49 -39q-85 -64 -212 -65q-97 0 -155 40q-68 45 -69 133zM197 129q0 -27 23 -40t57 -13q74 0 125 45l28 25l-25 17q-51 38 -119 38q-40 0 -64.5 -17t-24.5 -55z" />
<glyph unicode="&#xa5;" horiz-adv-x="1547" d="M55 1548l26 2h207q32 0 49 -4t42.5 -14.5t39 -22.5t34.5 -46l365 -592l300 451q15 25 25.5 53.5t10.5 60.5q0 15 -3 37t-43 52q-21 15 -47 27h424l-407 -588h313v-127h-385l-102 -155h487v-125h-491v-303q0 -80 7.5 -114t35.5 -72q23 -28 45 -44t41 -26l-478 2 q28 13 48.5 31t36.5 44.5t20.5 61t4.5 77.5v49v296h-490v119h496l-102 161h-389v127h309l-242 385q-9 13 -36 49q-32 42 -54 64q-30 30 -53.5 50.5t-44.5 33.5z" />
<glyph unicode="&#xa7;" horiz-adv-x="1117" d="M76 -83q28 -25 75.5 -48.5t113.5 -50.5q97 -38 193 -38q89 0 156.5 38t94.5 114q11 32 11 62q0 91 -108 175q-72 55 -218 121q-159 72 -236 167.5t-77 201.5q0 110 76 220q21 32 63 68q32 28 57 42q-42 63 -65 119.5t-23 113.5q0 42 8 71t32 71q51 91 164 139.5t255 48.5 q150 0 280 -57l27 -12v-231l-42 42q-40 38 -116.5 64.5t-156.5 26.5q-97 0 -151 -42q-66 -49 -67 -151q0 -53 152 -137q129 -66 260 -132q110 -59 164 -150q49 -80 50 -178q0 -68 -26.5 -135.5t-72.5 -122.5q-28 -34 -40.5 -46.5t-38.5 -32.5l17 -17q30 -30 51 -83.5 t21 -127.5q0 -44 -8.5 -89t-27.5 -98q-45 -121 -190 -190q-131 -63 -303 -62q-102 0 -203 26q-57 15 -75 21q-32 11 -76 32v247zM303 707q0 -110 186 -216q89 -49 180 -97l93 -49l22 28q57 106 57 173q0 112 -307 274q-45 25 -76.5 44t-57.5 30l-19 -21q-78 -91 -78 -166z " />
<glyph unicode="&#xa8;" horiz-adv-x="862" d="M68 1345q0 59 40 104.5t104 45.5q20 0 31 -2q61 -11 92 -52t31 -92q0 -59 -40 -104.5t-104 -45.5q-19 0 -31 2q-61 11 -92 52t-31 92zM498 1341q0 63 40 109.5t110 46.5q16 0 25 -2q64 -9 97 -51t33 -97q0 -63 -39.5 -109t-109.5 -46q-15 0 -25 2q-64 9 -97.5 50.5 t-33.5 96.5z" />
<glyph unicode="&#xa9;" horiz-adv-x="1689" d="M66 777q0 318 194 536q216 243 583 242q368 0 584 -242q195 -220 195 -536t-194 -534q-216 -243 -585 -243q-366 0 -582 243q-195 220 -195 534zM150 777q0 -284 172 -478q191 -216 521 -216q328 0 521 216q174 195 174 478q0 282 -172 477q-193 218 -523 218 q-328 0 -519 -216q-174 -197 -174 -479zM390 782q0 184 118 304q99 99 242 125q44 8 99 7q44 0 74 -2.5t68 -8.5l159 -40l19 -4l-27 -184h-37v76v14q0 27 -48.5 52t-87.5 31.5t-68.5 10.5t-51.5 4q-32 0 -65 -6q-138 -32 -201.5 -127.5t-63.5 -232.5v-36q4 -25 4 -36 q17 -142 119.5 -240.5t236.5 -98.5q91 0 145 14.5t113 44.5l28 15l10 -11l-23 -53l-29 -15q-40 -19 -113.5 -38t-138.5 -19q-201 0 -329.5 104t-147.5 282q-2 23 -3 40t-1 28z" />
<glyph unicode="&#xaa;" horiz-adv-x="780" d="M53 1055q0 87 45.5 130t157.5 67q157 36 163 38q49 23 49 66q0 11 -2 19q-8 32 -44 52t-89 20q-40 0 -74 -7.5t-81 -29.5l-34 -16l95 141h17q21 4 39.5 5.5t49.5 1.5q44 0 83.5 -8.5t80 -30t65.5 -69t25 -102.5v-260v-22q0 -25 4.5 -43t22.5 -28.5t42.5 -18t41.5 -3.5 l-54 -99q-25 0 -46 3t-55 15.5t-60.5 43.5t-26.5 73v233q-8 0 -30 -10q-63 -23 -99 -30q-91 -19 -123 -51q-25 -25 -25 -72q0 -45 43 -78.5t109 -33.5q40 0 78 13l24 10l-83 -112l-53 -4q-116 0 -190 65q-66 57 -66 132zM61 674l123 101l24 13q9 4 19 6q9 2 17 2q2 2 90 0 t113 -2h29h24h21q78 0 104 5l80 16l-123 -99q-13 -13 -29.5 -18.5t-39.5 -5.5h-36h-215.5t-121.5 -4z" />
<glyph unicode="&#xab;" horiz-adv-x="1140" d="M76 477v215l432 320v-211l-307 -219l299 -213v-223zM618 477v215l432 320v-211l-307 -219l299 -213v-223z" />
<glyph unicode="&#xac;" horiz-adv-x="1625" d="M68 517v114h1484v-631h-124v517h-1360z" />
<glyph unicode="&#xad;" horiz-adv-x="909" d="M76 498l148 167q11 13 32 24.5t40 11.5h28q53 0 114.5 -1t133.5 -1h30h25h21q32 0 57.5 1t52 6.5t51.5 13t42 13.5l-148 -167q-17 -19 -36 -29t-47 -10h-36h-108t-120 2q-59 0 -110 -1t-75 -7z" />
<glyph unicode="&#xae;" horiz-adv-x="1693" d="M74 777q0 318 193 536q216 243 584 242q368 0 583 -242q195 -220 195 -536t-193 -534q-216 -243 -585 -243q-366 0 -582 243q-195 220 -195 534zM157 777q0 -284 173 -478q191 -216 521 -216q328 0 521 216q174 195 174 478q0 282 -172 477q-193 218 -523 218 q-328 0 -519 -216q-174 -197 -175 -479zM493 352v36l34 2q19 2 35 5t25 14q19 19 19 48v640q0 27 -2 32q-9 13 -15 21q-8 11 -38 15t-45 4h-13v36h20l154 -6l227 6h21q81 0 136 -23q76 -30 101 -98q13 -34 13 -72q0 -53 -30 -100.5t-85 -83.5q-27 -19 -67 -32 q-15 -6 -47 -14l-10 -3l273 -360l32 -25l33 -9h7v-35h-11l-70 4l-68 -4l-17 -1l-340 441l4 19l44 -2q89 0 162 53t65 135q0 64 -34 105.5t-104 53.5q-30 4 -48 4q-42 0 -61.5 -3t-49.5 -11l-19 -5v-682q0 -30 13 -45.5t30 -18.5t40 -3l30 -4v-34h-20q-2 0 -59 4t-91 4 q-32 0 -72 -3t-82 -5h-20z" />
<glyph unicode="&#xb0;" horiz-adv-x="850" d="M74 1231q0 136 79 226q89 100 251 100q172 0 278 -119q97 -108 97 -258q0 -136 -80 -225q-89 -101 -250 -101q-172 0 -278 120q-97 108 -97 257zM171 1213q0 -104 64 -179q72 -81 193 -81q116 0 181 73t65 173q0 104 -64 178q-72 81 -193 82q-116 0 -181 -73t-65 -173z " />
<glyph unicode="&#xb1;" horiz-adv-x="1049" d="M76 0v85h902v-85h-902zM78 568v112h396v400h108v-400h396v-112h-402v-399h-102v399h-396z" />
<glyph unicode="&#xb4;" horiz-adv-x="763" d="M70 1144l504 362l125 -172z" />
<glyph unicode="&#xb5;" horiz-adv-x="1267" d="M19 -350q0 64 17 121q45 152 47 168l6 59v1080h182v-743q0 -93 55 -162t140 -69q87 0 179 71t92 158v745h178v-839q0 -70 36 -129t95 -47q72 13 95 94l17 59h37l-13 -66q-15 -80 -96 -139q-74 -53 -146 -53q-13 0 -19 2q-72 9 -131 71t-59 143l-55 -55 q-66 -68 -142 -110.5t-132 -42.5q-55 0 -122 30q-80 36 -125 97v-76q0 -59 50 -206q27 -80 26 -146q0 -55 -29.5 -98.5t-78.5 -43.5q-45 0 -74.5 38.5t-29.5 88.5z" />
<glyph unicode="&#xb6;" horiz-adv-x="1413" d="M72 1095q0 231 155 347q142 106 394 106h717q-64 -34 -94 -82.5t-35.5 -87.5t-5.5 -118v-1275q0 -64 5.5 -115.5t32.5 -106.5q13 -28 38 -47q17 -13 55 -32h-336v1640h-225v-1640h-337q40 19 55 28q25 17 41 51t25 86t9 130v661q-229 0 -361.5 118.5t-132.5 336.5z" />
<glyph unicode="&#xb7;" horiz-adv-x="445" d="M74 796q0 61 39.5 106t111.5 45q68 0 110 -45q36 -40 36 -101t-39.5 -106t-111.5 -45q-70 0 -108 42.5t-38 103.5z" />
<glyph unicode="&#xba;" horiz-adv-x="850" d="M61 676l136 95l27 13l37 6q4 2 84.5 0t139.5 -2h30h27h23q87 0 115 6l89 15l-136 -95q-21 -13 -31 -15q-15 -6 -45 -6h-40h-236t-133 -3zM72 1209q0 142 91 237q99 102 269 102q163 0 263 -108q89 -96 89 -227q0 -140 -98.5 -242.5t-253.5 -102.5q-163 0 -261.5 96.5 t-98.5 244.5zM208 1222q0 -117 60 -190t164 -73t161 75q51 69 51 175q0 95 -55 166q-61 80 -157 80q-100 0 -162 -67.5t-62 -165.5z" />
<glyph unicode="&#xbb;" horiz-adv-x="1127" d="M72 801v211l432 -320v-215l-426 -331v223l301 213zM614 801v211l432 -320v-215l-426 -331v223l301 213z" />
<glyph unicode="&#xbf;" horiz-adv-x="1013" d="M68 -76q0 110 68 218q57 89 180 205q72 64 146 129q66 70 67 153q0 32 -4 49l-6 38l180 19l8 -43q6 -32 5 -59q0 -104 -74 -201q-51 -66 -162 -159q-80 -66 -124 -138q-49 -81 -49 -165q0 -63 30 -122q44 -85 126.5 -131.5t182.5 -46.5q138 0 281 80l32 17l-133 -220 l-24 -9q-99 -38 -213 -38q-172 0 -308 78q-152 85 -192 229q-17 63 -17 117zM449 966q0 59 40 104.5t110 45.5q68 0 106 -41.5t38 -100.5t-40 -104.5t-110 -45.5q-68 0 -106 41.5t-38 100.5z" />
<glyph unicode="&#xc0;" horiz-adv-x="1805" d="M61 0q28 13 49 27.5t42 33.5q30 30 51 68q13 25 36 79l471 1177q8 19 12 33t4 31q0 13 -6 34q-17 55 -80 67h383l515 -1272q13 -38 30.5 -76.5t46.5 -78.5t61.5 -68t79.5 -55h-511q40 4 85 53q15 17 15 42q0 23 -13 58l-171 427h-585l-142 -387q-15 -42 -15 -85 q0 -45 21 -66q36 -34 73 -42h-452zM565 1851l125 172l504 -362zM640 746h466l-231 588z" />
<glyph unicode="&#xc1;" horiz-adv-x="1818" d="M61 0q28 13 49 27.5t42 33.5q30 30 51 68q13 25 36 79l471 1177q8 19 12 33t4 31q0 13 -6 34q-17 55 -80 67h383l515 -1272q13 -38 30.5 -76.5t46.5 -78.5t61.5 -68t79.5 -55h-511q40 4 85 53q15 17 15 42q0 23 -13 58l-171 427h-585l-142 -387q-15 -42 -15 -85 q0 -45 21 -66q36 -34 73 -42h-452zM572 1654l504 362l125 -172zM640 746h466l-231 588z" />
<glyph unicode="&#xc2;" horiz-adv-x="1818" d="M61 0q28 13 49 27.5t42 33.5q30 30 51 68q13 25 36 79l471 1177q8 19 12 33t4 31q0 13 -6 34q-17 55 -80 67h383l515 -1272q13 -38 30.5 -76.5t46.5 -78.5t61.5 -68t79.5 -55h-511q40 4 85 53q15 17 15 42q0 23 -13 58l-171 427h-585l-142 -387q-15 -42 -15 -85 q0 -45 21 -66q36 -34 73 -42h-452zM489 1652l385 356l378 -360q-61 0 -86 5t-81 26t-126 59q-51 28 -85 53q-32 -27 -101 -63q-83 -45 -146.5 -60.5t-137.5 -15.5zM640 746h466l-231 588z" />
<glyph unicode="&#xc3;" horiz-adv-x="1794" d="M40 0q28 13 49 27.5t42 33.5q30 30 51 68q13 25 36 79l471 1177q8 19 12 33t4 31q0 13 -6 34q-17 55 -80 67h383l515 -1272q13 -38 30.5 -76.5t46.5 -78.5t61.5 -68t79.5 -55h-511q40 4 85 53q15 17 15 42q0 23 -13 58l-171 427h-585l-142 -387q-15 -42 -15 -85 q0 -45 21 -66q36 -34 73 -42h-452zM271 1713l11 21q55 85 108 133q68 61 148 73q34 6 68 6q106 0 282.5 -75.5t244.5 -75.5q27 0 40 1.5t34 13.5q45 21 76 55q34 47 57 75l9 14l101 -63l-12 -15q-66 -89 -106 -125q-61 -55 -140 -74q-28 -8 -65 -7q-89 0 -270.5 76.5 t-251.5 76.5q-21 0 -50.5 -5t-59.5 -25q-49 -34 -112 -125l-15 -23zM619 746h466l-231 588z" />
<glyph unicode="&#xc4;" horiz-adv-x="1801" d="M61 0q28 13 49 27.5t42 33.5q30 30 51 68q13 25 36 79l471 1177q8 19 12 33t4 31q0 13 -6 34q-17 55 -80 67h383l515 -1272q13 -38 30.5 -76.5t46.5 -78.5t61.5 -68t79.5 -55h-511q40 4 85 53q15 17 15 42q0 23 -13 58l-171 427h-585l-142 -387q-15 -42 -15 -85 q0 -45 21 -66q36 -34 73 -42h-452zM508 1811q0 59 40 104.5t104 45.5q20 0 31 -2q61 -11 92 -52t31 -92q0 -59 -40 -104.5t-104 -45.5q-19 0 -31 2q-61 11 -92 52t-31 92zM640 746h466l-231 588zM938 1807q0 63 40 109.5t110 46.5q16 0 25 -2q64 -9 97 -51t33 -97 q0 -63 -39.5 -109t-109.5 -46q-15 0 -25 2q-64 9 -97.5 50.5t-33.5 96.5z" />
<glyph unicode="&#xc5;" horiz-adv-x="1807" d="M61 0q28 13 49 27.5t42 33.5q30 30 51 68q13 25 36 79l471 1177q8 19 12 33t4 31q0 13 -6 34q-17 55 -80 67h383l515 -1272q13 -38 30.5 -76.5t46.5 -78.5t61.5 -68t79.5 -55h-511q40 4 85 53q15 17 15 42q0 23 -13 58l-171 427h-585l-142 -387q-15 -42 -15 -85 q0 -45 21 -66q36 -34 73 -42h-452zM640 746h466l-231 588zM674 1862q0 89 58 154.5t162 65.5q100 0 157 -64q51 -57 52 -144q0 -89 -58 -154.5t-160 -65.5q-100 0 -155.5 61.5t-55.5 146.5zM752 1870q0 -55 37 -95.5t100 -40.5t97.5 38.5t34.5 91.5q0 55 -34 93 q-40 44 -102 44q-63 0 -98 -39t-35 -92z" />
<glyph unicode="&#xc6;" horiz-adv-x="2373" d="M38 4q57 21 110 58.5t79.5 64t66.5 80.5l900 1176q25 34 35 53t10 46q0 55 -53 66l834 2l37 4l35 13v-288l-48 43q-38 32 -113.5 46.5t-160.5 14.5q-55 0 -110 -5.5t-78 -9.5l-17 -4v-438h297q47 0 63 6q13 2 32 11v-263q-11 15 -19 25q-15 17 -30 26q-30 17 -85 23 t-101 6h-159l2 -559q15 -6 125 -19t212 -13q112 0 173 20q93 34 134.5 56t105.5 77l-112 -322l-1004 -2q36 17 53 29q25 17 38 43q21 36 27.5 74t6.5 87v59v290h-551l-288 -389q-25 -32 -42 -67t-17 -58q0 -11 6 -21q15 -21 26.5 -29t30.5 -12h-451zM894 746h432v556z" />
<glyph unicode="&#xc7;" horiz-adv-x="1496" d="M70 748q0 189 67.5 358t197.5 273q114 91 249 142q167 64 352 65q157 0 341 -48l47 -11v-273q-63 55 -179 93t-247 38q-104 0 -197 -30q-201 -64 -294 -256q-72 -148 -72 -339q0 -280 174.5 -452.5t437.5 -172.5q108 0 211.5 27t216.5 88l67 36l-120 -273l-20 -9 q-78 -30 -139.5 -44.5t-139.5 -14.5h-64h-23q-76 0 -157 15l-40 -106l13 6q30 8 49 7q42 0 79 -14t60 -44q30 -42 30 -95q0 -57 -37 -96t-82.5 -56t-94.5 -17q-61 0 -118.5 19t-120.5 57l-9 6l74 95q6 -13 59.5 -42.5t99.5 -29.5q8 0 26.5 4.5t38.5 20.5t20 39q0 36 -20 51 t-52 15q-49 0 -57 -13l-70 91l47 123q-135 27 -263 106q-106 66 -176 146q-80 93 -122.5 227.5t-42.5 287.5z" />
<glyph unicode="&#xc8;" horiz-adv-x="1250" d="M63 -2q19 9 39 19q34 19 51 53q25 45 30 93.5t5 128.5l-2 1010v56q0 34 -5 60t-22 55t-36 44.5t-57 32.5h815l40 5l32 14v-288l-47 43q-38 32 -113 46.5t-162 14.5q-55 0 -110 -5.5t-76 -9.5l-19 -4v-438h300q47 0 62 6l30 11v-263q-9 17 -23 31.5t-24 19.5 q-32 17 -86 23t-101 6h-158v-561q11 -4 128 -17t208 -13q114 0 174 20q97 34 135 55t106 78l-112 -324zM251 1844l125 172l504 -362z" />
<glyph unicode="&#xc9;" horiz-adv-x="1237" d="M63 -2q19 9 39 19q34 19 51 53q25 45 30 93.5t5 128.5l-2 1010v56q0 34 -5 60t-22 55t-36 44.5t-57 32.5h815l40 5l32 14v-288l-47 43q-38 32 -113 46.5t-162 14.5q-55 0 -110 -5.5t-76 -9.5l-19 -4v-438h300q47 0 62 6l30 11v-263q-9 17 -23 31.5t-24 19.5 q-32 17 -86 23t-101 6h-158v-561q11 -4 128 -17t208 -13q114 0 174 20q97 34 135 55t106 78l-112 -324zM271 1654l504 362l125 -172z" />
<glyph unicode="&#xca;" horiz-adv-x="1250" d="M63 -2q19 9 39 19q34 19 51 53q25 45 30 93.5t5 128.5l-2 1010v56q0 34 -5 60t-22 55t-36 44.5t-57 32.5h815l40 5l32 14v-288l-47 43q-38 32 -113 46.5t-162 14.5q-55 0 -110 -5.5t-76 -9.5l-19 -4v-438h300q47 0 62 6l30 11v-263q-9 17 -23 31.5t-24 19.5 q-32 17 -86 23t-101 6h-158v-561q11 -4 128 -17t208 -13q114 0 174 20q97 34 135 55t106 78l-112 -324zM203 1661l385 356l378 -360q-61 0 -86 5t-81 26t-126 59q-51 28 -85 53q-32 -27 -101 -63q-83 -45 -146.5 -60.5t-137.5 -15.5z" />
<glyph unicode="&#xcb;" horiz-adv-x="1250" d="M63 -2q19 9 39 19q34 19 51 53q25 45 30 93.5t5 128.5l-2 1010v56q0 34 -5 60t-22 55t-36 44.5t-57 32.5h815l40 5l32 14v-288l-47 43q-38 32 -113 46.5t-162 14.5q-55 0 -110 -5.5t-76 -9.5l-19 -4v-438h300q47 0 62 6l30 11v-263q-9 17 -23 31.5t-24 19.5 q-32 17 -86 23t-101 6h-158v-561q11 -4 128 -17t208 -13q114 0 174 20q97 34 135 55t106 78l-112 -324zM197 1809q0 59 40 104.5t104 45.5q20 0 31 -2q61 -11 92 -52t31 -92q0 -59 -40 -104.5t-104 -45.5q-19 0 -31 2q-61 11 -92 52t-31 92zM627 1805q0 63 40 109.5 t110 46.5q16 0 25 -2q64 -9 97 -51t33 -97q0 -63 -39.5 -109t-109.5 -46q-15 0 -25 2q-64 9 -97.5 50.5t-33.5 96.5z" />
<glyph unicode="&#xcc;" horiz-adv-x="625" d="M-3 1834l125 172l504 -362zM74 0q25 13 38 21q30 19 44 48.5t22.5 66t8.5 82.5v34v1061v25q0 53 -5.5 81t-30 68t-77.5 63h472q-30 -13 -49.5 -28.5t-33.5 -40t-23.5 -78.5t-9.5 -98v-1059v-34q0 -45 5.5 -74.5t26.5 -71.5q13 -25 33 -39t52 -27h-473z" />
<glyph unicode="&#xcd;" horiz-adv-x="591" d="M-10 1644l504 362l125 -172zM63 0q25 13 38 21q30 19 44 48.5t22.5 66t8.5 82.5v34v1061v25q0 53 -5.5 81t-30 68t-77.5 63h472q-30 -13 -49.5 -28.5t-33.5 -40t-23.5 -78.5t-9.5 -98v-1059v-34q0 -45 5.5 -74.5t26.5 -71.5q13 -25 33 -39t52 -27h-473z" />
<glyph unicode="&#xce;" horiz-adv-x="761" d="M-2 1661l385 356l378 -360q-61 0 -86 5t-81 26t-126 59q-51 28 -85 53q-32 -27 -101 -63q-83 -45 -146.5 -60.5t-137.5 -15.5zM142 0q25 13 38 21q30 19 44 48.5t22.5 66t8.5 82.5v34v1061v25q0 53 -5.5 81t-30 68t-77.5 63h472q-30 -13 -49.5 -28.5t-33.5 -40 t-23.5 -78.5t-9.5 -98v-1059v-34q0 -45 5.5 -74.5t26.5 -71.5q13 -25 33 -39t52 -27h-473z" />
<glyph unicode="&#xcf;" horiz-adv-x="716" d="M-19 1809q0 59 40 104.5t104 45.5q20 0 31 -2q61 -11 92 -52t31 -92q0 -59 -40 -104.5t-104 -45.5q-19 0 -31 2q-61 11 -92 52t-31 92zM120 0q25 13 38 21q30 19 44 48.5t22.5 66t8.5 82.5v34v1061v25q0 53 -5.5 81t-30 68t-77.5 63h472q-30 -13 -49.5 -28.5t-33.5 -40 t-23.5 -78.5t-9.5 -98v-1059v-34q0 -45 5.5 -74.5t26.5 -71.5q13 -25 33 -39t52 -27h-473zM411 1805q0 63 40 109.5t110 46.5q16 0 25 -2q64 -9 97 -51t33 -97q0 -63 -39.5 -109t-109.5 -46q-15 0 -25 2q-64 9 -97.5 50.5t-33.5 96.5z" />
<glyph unicode="&#xd1;" horiz-adv-x="1706" d="M68 0q25 9 51 27q34 23 54 54t28.5 71.5t8.5 71.5v20v1067q0 45 -4.5 81t-21.5 63q-27 38 -48.5 58t-63.5 37h377q4 -28 8 -36q11 -21 15 -27q13 -21 32 -47l854 -1078v940q0 61 -6.5 96.5t-32.5 77.5q-15 25 -36 42t-53 32h445q-76 -30 -110 -95q-13 -23 -21.5 -52 t-8.5 -71v-34l1 -1376q-55 17 -94.5 37t-88.5 58q-32 23 -61 51q-13 13 -81 101l-830 1047l2 -968v-24q0 -45 10.5 -83.5t47.5 -89.5q9 -11 38 -29t42 -22h-453zM294 1709l11 21q55 85 108 133q68 61 148 73q34 6 68 6q106 0 282.5 -75.5t244.5 -75.5q27 0 40 1.5t34 13.5 q45 21 76 55q34 47 57 75l9 14l101 -63l-12 -15q-66 -89 -106 -125q-61 -55 -140 -74q-28 -8 -65 -7q-89 0 -270.5 76.5t-251.5 76.5q-21 0 -50.5 -5t-59.5 -25q-49 -34 -112 -125l-15 -23z" />
<glyph unicode="&#xd2;" d="M68 771q0 326 214 561q233 256 605 256q449 0 691 -269q210 -236 210 -586q0 -307 -217 -532q-235 -243 -601 -243q-402 0 -652 232t-250 581zM339 756q0 -275 171.5 -456t436.5 -181q258 0 425 205q153 189 153 441q0 269 -140 446q-163 205 -464 204q-271 0 -434 -204 q-148 -186 -148 -455zM605 1838l125 172l504 -362z" />
<glyph unicode="&#xd3;" d="M57 771q0 326 214 561q233 256 605 256q449 0 691 -269q210 -236 210 -586q0 -307 -217 -532q-235 -243 -601 -243q-402 0 -652 232t-250 581zM328 756q0 -275 171.5 -456t436.5 -181q258 0 425 205q153 189 153 441q0 269 -140 446q-163 205 -464 204q-271 0 -434 -204 q-148 -186 -148 -455zM587 1659l504 362l125 -172z" />
<glyph unicode="&#xd4;" d="M68 771q0 326 214 561q233 256 605 256q449 0 691 -269q210 -236 210 -586q0 -307 -217 -532q-235 -243 -601 -243q-402 0 -652 232t-250 581zM339 756q0 -275 171.5 -456t436.5 -181q258 0 425 205q153 189 153 441q0 269 -140 446q-163 205 -464 204q-271 0 -434 -204 q-148 -186 -148 -455zM549 1663l385 356l378 -360q-61 0 -86 5t-81 26t-126 59q-51 28 -85 53q-32 -27 -101 -63q-83 -45 -146.5 -60.5t-137.5 -15.5z" />
<glyph unicode="&#xd5;" d="M68 771q0 326 214 561q233 256 605 256q449 0 691 -269q210 -236 210 -586q0 -307 -217 -532q-235 -243 -601 -243q-402 0 -652 232t-250 581zM318 1703l11 21q55 85 108 133q68 61 148 73q34 6 68 6q106 0 282.5 -75.5t244.5 -75.5q27 0 40 1.5t34 13.5q45 21 76 55 q34 47 57 75l9 14l101 -63l-12 -15q-66 -89 -106 -125q-61 -55 -140 -74q-28 -8 -65 -7q-89 0 -270.5 76.5t-251.5 76.5q-21 0 -50.5 -5t-59.5 -25q-49 -34 -112 -125l-15 -23zM339 756q0 -275 171.5 -456t436.5 -181q258 0 425 205q153 189 153 441q0 269 -140 446 q-163 205 -464 204q-271 0 -434 -204q-148 -186 -148 -455z" />
<glyph unicode="&#xd6;" d="M60 771q0 326 214 561q233 256 605 256q449 0 691 -269q210 -236 210 -586q0 -307 -217 -532q-235 -243 -601 -243q-402 0 -652 232t-250 581zM331 756q0 -275 171.5 -456t436.5 -181q258 0 425 205q153 189 153 441q0 269 -140 446q-163 205 -464 204q-271 0 -434 -204 q-148 -186 -148 -455zM555 1809q0 59 40 104.5t104 45.5q20 0 31 -2q61 -11 92 -52t31 -92q0 -59 -40 -104.5t-104 -45.5q-19 0 -31 2q-61 11 -92 52t-31 92zM985 1805q0 63 40 109.5t110 46.5q16 0 25 -2q64 -9 97 -51t33 -97q0 -63 -39.5 -109t-109.5 -46q-15 0 -25 2 q-64 9 -97.5 50.5t-33.5 96.5z" />
<glyph unicode="&#xd8;" d="M68 771q0 326 214 561q233 256 605 256q146 0 265 -29l59 152h174l-78 -201q241 -102 368 -324q113 -199 113 -453q0 -307 -217 -532q-235 -243 -601 -243q-142 0 -261 31l-57 -148h-171l76 197q-229 99 -359 293t-130 440zM339 756q0 -178 76 -322t208 -227l464 1189 q-74 19 -166 19q-271 0 -434 -204q-148 -186 -148 -455zM771 144q80 -25 176 -25q258 0 425 205q153 189 153 441q0 182 -66 326q-74 161 -220 247z" />
<glyph unicode="&#xd9;" horiz-adv-x="1580" d="M49 1550h459q-25 -11 -38 -21.5t-34 -37.5q-13 -17 -23.5 -58.5t-10.5 -62.5v-817q0 -208 100 -316q95 -102 263 -102h33q13 2 20 1q152 15 251.5 105.5t99.5 211.5v854q0 63 -4 95t-26 76q-13 27 -28.5 42t-45.5 30h453q-40 -21 -53.5 -34.5t-28.5 -41.5t-21.5 -68 t-6.5 -82v-24l2 -1075q0 -57 8.5 -90t28.5 -74q13 -23 35 -38q9 -8 47 -23h-362v152q-78 -81 -187 -133.5t-239 -52.5q-258 0 -406 115q-176 138 -176 425v852q0 36 -12 76t-31 65q-25 34 -67 51zM482 1834l125 172l504 -362z" />
<glyph unicode="&#xda;" horiz-adv-x="1580" d="M49 1550h459q-25 -11 -38 -21.5t-34 -37.5q-13 -17 -23.5 -58.5t-10.5 -62.5v-817q0 -208 100 -316q95 -102 263 -102h33q13 2 20 1q152 15 251.5 105.5t99.5 211.5v854q0 63 -4 95t-26 76q-13 27 -28.5 42t-45.5 30h453q-40 -21 -53.5 -34.5t-28.5 -41.5t-21.5 -68 t-6.5 -82v-24l2 -1075q0 -57 8.5 -90t28.5 -74q13 -23 35 -38q9 -8 47 -23h-362v152q-78 -81 -187 -133.5t-239 -52.5q-258 0 -406 115q-176 138 -176 425v852q0 36 -12 76t-31 65q-25 34 -67 51zM475 1654l504 362l125 -172z" />
<glyph unicode="&#xdb;" horiz-adv-x="1580" d="M49 1550h459q-25 -11 -38 -21.5t-34 -37.5q-13 -17 -23.5 -58.5t-10.5 -62.5v-817q0 -208 100 -316q95 -102 263 -102h33q13 2 20 1q152 15 251.5 105.5t99.5 211.5v854q0 63 -4 95t-26 76q-13 27 -28.5 42t-45.5 30h453q-40 -21 -53.5 -34.5t-28.5 -41.5t-21.5 -68 t-6.5 -82v-24l2 -1075q0 -57 8.5 -90t28.5 -74q13 -23 35 -38q9 -8 47 -23h-362v152q-78 -81 -187 -133.5t-239 -52.5q-258 0 -406 115q-176 138 -176 425v852q0 36 -12 76t-31 65q-25 34 -67 51zM413 1661l385 356l378 -360q-61 0 -86 5t-81 26t-126 59q-51 28 -85 53 q-32 -27 -101 -63q-83 -45 -146.5 -60.5t-137.5 -15.5z" />
<glyph unicode="&#xdc;" horiz-adv-x="1581" d="M49 1563h459q-25 -11 -38 -21.5t-34 -37.5q-13 -17 -23.5 -58.5t-10.5 -62.5v-817q0 -208 100 -316q95 -102 263 -102h33q13 2 20 1q152 15 251.5 105.5t99.5 211.5v854q0 63 -4 95t-26 76q-13 27 -28.5 42t-45.5 30h453q-40 -21 -53.5 -34.5t-28.5 -41.5t-21.5 -68 t-6.5 -82v-24l2 -1075q0 -57 8.5 -90t28.5 -74q13 -23 35 -38q9 -8 47 -23h-362v152q-78 -81 -187 -133.5t-239 -52.5q-258 0 -406 115q-176 138 -176 425v852q0 36 -12 76t-31 65q-25 34 -67 51zM436 1811q0 59 40 104.5t104 45.5q20 0 31 -2q61 -11 92 -52t31 -92 q0 -59 -40 -104.5t-104 -45.5q-19 0 -31 2q-61 11 -92 52t-31 92zM866 1807q0 63 40 109.5t110 46.5q16 0 25 -2q64 -9 97 -51t33 -97q0 -63 -39.5 -109t-109.5 -46q-15 0 -25 2q-64 9 -97.5 50.5t-33.5 96.5z" />
<glyph unicode="&#xdf;" horiz-adv-x="1276" d="M49 -4q34 15 52 28.5t34.5 47.5t21 72t4.5 47v36v698h-87l98 166l-1 59q0 188 107 312t275 124q214 0 329.5 -86.5t115.5 -235.5q0 -28 -1 -42q-11 -106 -138.5 -194t-127.5 -111q0 -9 218 -138q122 -72 171 -144q47 -70 70.5 -143t23.5 -138q0 -129 -78.5 -227.5 t-197.5 -134.5q-70 -21 -156 -20q-153 0 -252 68l-64 220l68 -44q112 -72 243 -72q93 0 149 44q64 49 65 144q0 157 -129 270q-63 55 -239 148q-131 68 -130 116q0 6 3.5 20t210.5 205q83 78 83 158q-2 13 -2 20q-8 76 -63.5 120.5t-135.5 44.5q-91 0 -152.5 -69t-61.5 -164 v-955v-34q0 -45 5.5 -74.5t26.5 -71.5q13 -25 30.5 -38t45.5 -28z" />
<glyph unicode="&#xe0;" horiz-adv-x="1229" d="M70 284q0 146 78.5 217t262.5 115q114 21 227 43q131 40 131 131q0 9 -4 32q-11 55 -70.5 88t-152.5 33q-121 0 -260 -62l-58 -27l161 235l28 2q70 9 144 10q78 0 144 -12.5t134.5 -49.5t111 -116.5t42.5 -174.5l-2 -435v-36q0 -42 9.5 -72.5t37.5 -47.5q68 -42 120 -41 q15 -1 23 1l-93 -162q-19 -2 -68.5 4.5t-94.5 21.5q-64 25 -106 74q-47 55 -48 123l2 392q-55 -19 -110 -37t-106 -29q-153 -30 -208 -87q-42 -42 -42 -120t72 -132.5t180 -54.5q64 0 133 23l41 15l-140 -188l-87 -5q-193 0 -318 108q-114 99 -114 221zM300 1419l125 172 l504 -362z" />
<glyph unicode="&#xe1;" horiz-adv-x="1223" d="M53 284q0 146 78.5 217t262.5 115q114 21 227 43q131 40 131 131q0 9 -4 32q-11 55 -70.5 88t-152.5 33q-121 0 -260 -62l-58 -27l161 235l28 2q70 9 144 10q78 0 144 -12.5t134.5 -49.5t111 -116.5t42.5 -174.5l-2 -435v-36q0 -42 9.5 -72.5t37.5 -47.5q68 -42 120 -41 q15 -1 23 1l-93 -162q-19 -2 -68.5 4.5t-94.5 21.5q-64 25 -106 74q-47 55 -48 123l2 392q-55 -19 -110 -37t-106 -29q-153 -30 -208 -87q-42 -42 -42 -120t72 -132.5t180 -54.5q64 0 133 23l41 15l-140 -188l-87 -5q-193 0 -318 108q-114 99 -114 221zM267 1229l504 362 l125 -172z" />
<glyph unicode="&#xe2;" horiz-adv-x="1216" d="M62 275q0 146 78.5 217t262.5 115q114 21 227 43q131 40 131 131q0 9 -4 32q-11 55 -70.5 88t-152.5 33q-121 0 -260 -62l-58 -27l161 235l28 2q70 9 144 10q78 0 144 -12.5t134.5 -49.5t111 -116.5t42.5 -174.5l-2 -435v-36q0 -42 9.5 -72.5t37.5 -47.5q68 -42 120 -41 q15 -1 23 1l-93 -162q-19 -2 -68.5 4.5t-94.5 21.5q-64 25 -106 74q-47 55 -48 123l2 392q-55 -19 -110 -37t-106 -29q-153 -30 -208 -87q-42 -42 -42 -120t72 -132.5t180 -54.5q64 0 133 23l41 15l-140 -188l-87 -5q-193 0 -318 108q-114 99 -114 221zM226 1231l385 356 l378 -360q-61 0 -86 5t-81 26t-126 59q-51 28 -85 53q-32 -27 -101 -63q-83 -45 -146.5 -60.5t-137.5 -15.5z" />
<glyph unicode="&#xe3;" horiz-adv-x="1242" d="M32 1290l11 21q55 85 108 133q68 61 148 73q34 6 68 6q106 0 282.5 -75.5t244.5 -75.5q27 0 40 1.5t34 13.5q45 21 76 55q34 47 57 75l9 14l101 -63l-12 -15q-66 -89 -106 -125q-61 -55 -140 -74q-28 -8 -65 -7q-89 0 -270.5 76.5t-251.5 76.5q-21 0 -50.5 -5t-59.5 -25 q-49 -34 -112 -125l-15 -23zM62 284q0 146 78.5 217t262.5 115q114 21 227 43q131 40 131 131q0 9 -4 32q-11 55 -70.5 88t-152.5 33q-121 0 -260 -62l-58 -27l161 235l28 2q70 9 144 10q78 0 144 -12.5t134.5 -49.5t111 -116.5t42.5 -174.5l-2 -435v-36q0 -42 9.5 -72.5 t37.5 -47.5q68 -42 120 -41q15 -1 23 1l-93 -162q-19 -2 -68.5 4.5t-94.5 21.5q-64 25 -106 74q-47 55 -48 123l2 392q-55 -19 -110 -37t-106 -29q-153 -30 -208 -87q-42 -42 -42 -120t72 -132.5t180 -54.5q64 0 133 23l41 15l-140 -188l-87 -5q-193 0 -318 108 q-114 99 -114 221z" />
<glyph unicode="&#xe4;" horiz-adv-x="1220" d="M70 284q0 146 78.5 217t262.5 115q114 21 227 43q131 40 131 131q0 9 -4 32q-11 55 -70.5 88t-152.5 33q-121 0 -260 -62l-58 -27l161 235l28 2q70 9 144 10q78 0 144 -12.5t134.5 -49.5t111 -116.5t42.5 -174.5l-2 -435v-36q0 -42 9.5 -72.5t37.5 -47.5q68 -42 120 -41 q15 -1 23 1l-93 -162q-19 -2 -68.5 4.5t-94.5 21.5q-64 25 -106 74q-47 55 -48 123l2 392q-55 -19 -110 -37t-106 -29q-153 -30 -208 -87q-42 -42 -42 -120t72 -132.5t180 -54.5q64 0 133 23l41 15l-140 -188l-87 -5q-193 0 -318 108q-114 99 -114 221zM265 1375 q0 59 40 104.5t104 45.5q20 0 31 -2q61 -11 92 -52t31 -92q0 -59 -40 -104.5t-104 -45.5q-19 0 -31 2q-61 11 -92 52t-31 92zM695 1371q0 63 40 109.5t110 46.5q16 0 25 -2q64 -9 97 -51t33 -97q0 -63 -39.5 -109t-109.5 -46q-15 0 -25 2q-64 9 -97.5 50.5t-33.5 96.5z" />
<glyph unicode="&#xe5;" horiz-adv-x="1231" d="M63 284q0 146 78.5 217t262.5 115q114 21 227 43q131 40 131 131q0 9 -4 32q-11 55 -71 88t-153 33q-121 0 -259 -62l-59 -27l161 235l28 2q70 9 144 10q78 0 144.5 -12.5t134.5 -49.5t110.5 -116.5t42.5 -174.5l-2 -435v-36q0 -42 9.5 -72.5t38.5 -47.5q68 -42 119 -41 q15 -1 23 1l-93 -162q-19 -2 -68 4.5t-95 21.5q-64 25 -106 74q-47 55 -47 123l2 392q-55 -19 -110 -37t-106 -29q-153 -30 -209 -87q-42 -42 -41 -120q0 -78 72 -132.5t180 -54.5q64 0 132 23l42 15l-140 -188l-88 -5q-193 0 -318 108q-114 99 -113 221zM409 1430 q0 89 58 154.5t160 65.5q100 0 155 -61.5t55 -146.5q0 -89 -57.5 -154.5t-161.5 -65.5q-100 0 -154.5 60.5t-54.5 147.5zM487 1438q0 -55 36 -95.5t100 -40.5q63 0 97 37.5t34 92.5t-36 96t-100 41q-63 0 -97 -38t-34 -93z" />
<glyph unicode="&#xe6;" horiz-adv-x="1960" d="M64 284q0 144 82 220q76 68 259 112q114 23 228 47q125 44 125 159q0 59 -62.5 90t-161.5 31q-64 0 -124 -14t-135 -48l-57 -27l161 235l26 2q19 0 68.5 5t64.5 5q261 0 387 -150q108 95 202.5 132t228.5 37q208 0 381 -152q148 -131 148 -339v-49h-860q0 -191 108 -313 q127 -142 371 -142q80 0 158.5 20t154.5 65l66 40l-115 -220l-42 -15q-89 -32 -148 -39.5t-125 -7.5q-294 0 -492.5 148.5t-198.5 340.5v113q-55 -19 -111 -38t-103 -28q-153 -30 -209 -87q-42 -42 -42 -120t70.5 -132.5t180.5 -54.5q28 0 59 3t75 20l40 15l-138 -188 l-88 -5q-193 0 -318 108q-114 99 -114 221zM1031 724l610 -2q-30 123 -106 181t-190 58q-117 0 -201.5 -61t-112.5 -176z" />
<glyph unicode="&#xe7;" horiz-adv-x="1193" d="M55 521q0 110 42.5 214t114.5 178q102 106 264 156q129 40 280 39q72 0 113.5 -4.5t98.5 -17.5l17 -4v-248l-23 19q-53 49 -126.5 76.5t-147.5 27.5q-116 0 -208 -53t-137.5 -155.5t-45.5 -193.5q0 -178 154 -320q55 -51 140 -83.5t184 -32.5q74 0 148.5 20t152.5 64 l63 34l-120 -220l-30 -17q-80 -40 -207 -40h-90h-21q-30 0 -70 6l-40 -101l13 4q21 8 53 8q40 0 77 -14.5t58 -44.5q30 -42 30 -93q0 -57 -36 -95.5t-82.5 -55.5t-95.5 -17q-59 0 -120.5 19.5t-118.5 54.5l-9 5l74 95q8 -17 81 -49q49 -21 80 -21q15 0 20 2q23 8 43 24 t20 36q0 38 -20 53.5t-52 15.5q-49 0 -57 -14l-70 89l47 122q-51 13 -92.5 32t-92.5 53q-131 87 -197 210q-59 110 -59 237z" />
<glyph unicode="&#xe8;" horiz-adv-x="1246" d="M54 557q0 258 168.5 410.5t429.5 152.5q210 0 364 -137q161 -144 161 -354v-49h-860q0 -197 108 -315q129 -140 396 -140q148 0 290 85l66 40l-116 -220l-43 -15q-70 -25 -142 -35t-157 -10q-280 0 -472.5 164.5t-192.5 422.5zM307 1419l125 172l504 -362zM324 724 l609 -2q-30 121 -106 180t-190 59q-117 0 -200.5 -61t-112.5 -176z" />
<glyph unicode="&#xe9;" horiz-adv-x="1275" d="M63 557q0 258 168.5 410.5t429.5 152.5q210 0 364 -137q161 -144 161 -354v-49h-860q0 -197 108 -315q129 -140 396 -140q148 0 290 85l66 40l-116 -220l-43 -15q-70 -25 -142 -35t-157 -10q-280 0 -472.5 164.5t-192.5 422.5zM333 724l609 -2q-30 121 -106 180t-190 59 q-117 0 -200.5 -61t-112.5 -176zM335 1222l504 362l125 -172z" />
<glyph unicode="&#xea;" horiz-adv-x="1254" d="M63 557q0 258 168.5 410.5t429.5 152.5q210 0 364 -137q161 -144 161 -354v-49h-860q0 -197 108 -315q129 -140 396 -140q148 0 290 85l66 40l-116 -220l-43 -15q-70 -25 -142 -35t-157 -10q-280 0 -472.5 164.5t-192.5 422.5zM284 1231l385 356l378 -360q-61 0 -86 5 t-81 26t-126 59q-51 28 -85 53q-32 -27 -101 -63q-83 -45 -146.5 -60.5t-137.5 -15.5zM333 724l609 -2q-30 121 -106 180t-190 59q-117 0 -200.5 -61t-112.5 -176z" />
<glyph unicode="&#xeb;" horiz-adv-x="1256" d="M63 557q0 258 168.5 410.5t429.5 152.5q210 0 364 -137q161 -144 161 -354v-49h-860q0 -197 108 -315q129 -140 396 -140q148 0 290 85l66 40l-116 -220l-43 -15q-70 -25 -142 -35t-157 -10q-280 0 -472.5 164.5t-192.5 422.5zM301 1383q0 59 40 104.5t104 45.5 q20 0 31 -2q61 -11 92 -52t31 -92q0 -59 -40 -104.5t-104 -45.5q-19 0 -31 2q-61 11 -92 52t-31 92zM333 724l609 -2q-30 121 -106 180t-190 59q-117 0 -200.5 -61t-112.5 -176zM731 1379q0 63 40 109.5t110 46.5q16 0 25 -2q64 -9 97 -51t33 -97q0 -63 -39.5 -109 t-109.5 -46q-15 0 -25 2q-64 9 -97.5 50.5t-33.5 96.5z" />
<glyph unicode="&#xec;" horiz-adv-x="663" d="M15 1419l125 172l504 -361zM140 0q19 9 36 27q8 8 28 31t25.5 46t5.5 63v737q0 49 -3 71.5t-23.5 54t-64.5 54.5h180q30 0 65 11t62 30v-951q0 -53 2 -62q4 -13 19 -39t36 -45.5t38 -27.5h-406z" />
<glyph unicode="&#xed;" horiz-adv-x="651" d="M57 1231l504 362l125 -172zM142 0q13 8 23.5 17.5t39.5 39.5q17 23 24.5 49.5t7.5 60.5v737q0 49 -3 70t-22 51q-25 38 -66 59h180q28 0 63 10.5t64 30.5l-2 -951q0 -38 3 -56.5t18 -44.5t36 -45.5t40 -27.5h-406z" />
<glyph unicode="&#xee;" horiz-adv-x="663" d="M-64 1226l384 356l379 -360q-61 0 -86.5 4.5t-81 25.5t-126.5 59q-51 28 -85 53q-32 -27 -100 -62q-83 -45 -147 -60.5t-137 -15.5zM127 0q13 8 23.5 17.5t38.5 39.5q17 23 25 49.5t8 60.5v737q0 57 -6 77.5t-21 43.5q-21 36 -64 59h178q30 0 65 10.5t64 30.5l-2 -951 q0 -38 2.5 -56.5t18 -44.5t36 -45.5t37.5 -27.5h-403z" />
<glyph unicode="&#xef;" horiz-adv-x="655" d="M-25 1377q0 59 40 104.5t104 45.5q20 0 31 -2q61 -11 92 -52t31 -92q0 -59 -40 -104.5t-104 -45.5q-19 0 -30 2q-61 11 -92.5 52t-31.5 92zM159 0q19 9 36 27q8 8 28 31t25.5 46t5.5 63v737q0 49 -3 71.5t-23.5 54t-64.5 54.5h180q30 0 65 11t62 30v-951q0 -53 2 -62 q4 -13 19 -39t36 -45.5t38 -27.5h-406zM405 1374q0 63 40 109t110 46q16 0 25 -2q64 -9 97 -51t33 -97q0 -63 -39.5 -109t-109.5 -46q-15 0 -25 2q-64 9 -97.5 51t-33.5 97z" />
<glyph unicode="&#xf1;" horiz-adv-x="1305" d="M64 0q34 15 51 28.5t33 43.5t19 56.5t3 87.5l-2 674q0 68 -5.5 92t-21.5 46t-29.5 31.5t-36.5 20.5h195q34 0 60 11.5t48 33.5l-1 -153q53 64 151.5 105t204.5 41q36 0 74 -6q148 -23 229 -125t81 -246l2 -542q0 -61 4 -85.5t25 -54.5q13 -17 22 -27q19 -19 42 -32h-404 q25 11 39.5 24.5t32.5 41t20.5 51t2.5 74.5v457q0 138 -57 218q-66 93 -202 93q-148 0 -213 -86q-53 -70 -53 -199v-471q0 -32 1 -63.5t14.5 -59t31.5 -45.5t52 -35h-413zM66 1294l11 21q55 85 108 133q68 61 148 73q34 6 68 6q106 0 282.5 -75.5t244.5 -75.5q27 0 40 1.5 t34 13.5q45 21 76 55q34 47 57 75l9 14l101 -63l-12 -15q-66 -89 -106 -125q-61 -55 -140 -74q-28 -8 -65 -7q-89 0 -270.5 76.5t-251.5 76.5q-21 0 -50.5 -5t-59.5 -25q-49 -34 -112 -125l-15 -23z" />
<glyph unicode="&#xf2;" horiz-adv-x="1318" d="M65 538q0 241 153 400q167 172 449 172q277 0 444 -182q149 -162 149 -382q0 -235 -161 -402q-171 -176 -432 -176q-275 0 -438.5 162t-163.5 408zM294 561q0 -197 99.5 -319.5t273.5 -122.5t271 127q87 116 87 294q0 161 -91 280q-102 135 -267 135q-169 0 -271 -113.5 t-102 -280.5zM328 1419l125 172l504 -362z" />
<glyph unicode="&#xf3;" horiz-adv-x="1318" d="M67 538q0 241 153 400q167 172 449 172q277 0 444 -182q149 -162 149 -382q0 -235 -161 -402q-171 -176 -432 -176q-275 0 -438.5 162t-163.5 408zM296 561q0 -197 99.5 -319.5t273.5 -122.5t271 127q87 116 87 294q0 161 -91 280q-102 135 -267 135q-169 0 -271 -113.5 t-102 -280.5zM354 1231l504 362l125 -172z" />
<glyph unicode="&#xf4;" horiz-adv-x="1311" d="M64 549q0 241 152 400q165 172 447 173q275 0 442 -182q147 -161 147 -383q0 -233 -161 -402q-169 -176 -428 -176q-271 0 -435 162t-164 408zM284 1231l385 357l379 -360q-61 0 -86.5 4.5t-81.5 25.5t-126 59q-51 28 -85 53q-32 -27 -101 -63q-83 -45 -146.5 -60.5 t-137.5 -15.5zM292 572q0 -197 98.5 -319t272.5 -122t269 127q87 115 87 293q0 161 -91 281q-102 135 -265 134q-167 0 -269 -113.5t-102 -280.5z" />
<glyph unicode="&#xf5;" horiz-adv-x="1320" d="M63 538q0 241 153 400q167 172 449 172q277 0 444 -182q149 -162 149 -382q0 -235 -161 -402q-171 -176 -432 -176q-275 0 -438.5 162t-163.5 408zM100 1292l11 21q55 85 108 133q68 61 148 73q34 6 68 6q106 0 282.5 -75.5t244.5 -75.5q27 0 40 1.5t34 13.5q45 21 76 55 q34 47 57 75l9 14l101 -63l-12 -15q-66 -89 -106 -125q-61 -55 -140 -74q-28 -8 -65 -7q-89 0 -270.5 76.5t-251.5 76.5q-21 0 -50.5 -5t-59.5 -25q-49 -34 -112 -125l-15 -23zM292 561q0 -197 99.5 -319.5t273.5 -122.5t271 127q87 116 87 294q0 161 -91 280 q-102 135 -267 135q-169 0 -271 -113.5t-102 -280.5z" />
<glyph unicode="&#xf6;" horiz-adv-x="1328" d="M67 538q0 241 153 400q167 172 449 172q277 0 444 -182q149 -162 149 -382q0 -235 -161 -402q-171 -176 -432 -176q-275 0 -438.5 162t-163.5 408zM296 561q0 -197 99.5 -319.5t273.5 -122.5t271 127q87 116 87 294q0 161 -91 280q-102 135 -267 135q-169 0 -271 -113.5 t-102 -280.5zM337 1385q0 59 40 104.5t104 45.5q20 0 31 -2q61 -11 92 -52t31 -92q0 -59 -40 -104.5t-104 -45.5q-19 0 -31 2q-61 11 -92 52t-31 92zM767 1381q0 63 40 109.5t110 46.5q16 0 25 -2q64 -9 97 -51t33 -97q0 -63 -39.5 -109t-109.5 -46q-15 0 -25 2 q-64 9 -97.5 50.5t-33.5 96.5z" />
<glyph unicode="&#xf7;" horiz-adv-x="1383" d="M70 390v135h1239v-135h-1239zM553 131q0 55 36.5 95.5t100.5 40.5q61 0 94.5 -38t33.5 -93q0 -53 -36 -94.5t-98 -41.5q-63 0 -97 38t-34 93zM553 777q0 55 36.5 95.5t100.5 40.5q61 0 94.5 -38t33.5 -93q0 -53 -36 -94.5t-98 -41.5q-63 0 -97 38t-34 93z" />
<glyph unicode="&#xf8;" horiz-adv-x="1333" d="M76 538q0 241 153 400q167 172 449 172q133 0 241 -43l49 87h133l-80 -140q121 -80 185.5 -206t64.5 -262q0 -235 -161 -402q-171 -176 -432 -176q-127 0 -235 38l-58 -101h-131l85 150q-125 76 -194 202t-69 281zM305 561q0 -225 125 -347l402 703q-66 38 -154 38 q-169 0 -271 -113.5t-102 -280.5zM525 150q72 -30 153 -31q174 0 271 127q87 116 87 294q0 81 -29 163.5t-82 141.5z" />
<glyph unicode="&#xf9;" horiz-adv-x="1276" d="M55 1080h176h30q27 0 50.5 6.5t35.5 12.5q8 4 28 17v-665q0 -153 70 -229q57 -61 161 -74q11 -2 36 -2q117 0 189.5 93t72.5 219l2 396v21q0 53 -3 78t-17.5 52.5t-36 45.5t-42.5 29h163h47q30 0 49.5 5.5t30.5 11.5q4 2 28 15v-915v-70q4 -32 23 -64q13 -19 35 -38 t37 -25h-314v157q-57 -91 -139 -136q-97 -53 -246 -53q-161 13 -258 121q-106 117 -106 318l2 491v30q0 27 -11 70q-4 15 -34.5 43.5t-58.5 38.5zM324 1419l125 172l504 -362z" />
<glyph unicode="&#xfa;" horiz-adv-x="1254" d="M28 1080h176h30q27 0 50.5 6.5t35.5 12.5q8 4 28 17v-665q0 -153 70 -229q57 -61 161 -74q11 -2 36 -2q117 0 189.5 93t72.5 219l2 396v21q0 53 -3 78t-17.5 52.5t-36 45.5t-42.5 29h163h47q30 0 49.5 5.5t30.5 11.5q4 2 28 15v-915v-70q4 -32 23 -64q13 -19 35 -38 t37 -25h-314v157q-57 -91 -139 -136q-97 -53 -246 -53q-161 13 -258 121q-106 117 -106 318l2 491v30q0 27 -11 70q-4 15 -34.5 43.5t-58.5 38.5zM352 1231l504 362l125 -172z" />
<glyph unicode="&#xfb;" horiz-adv-x="1271" d="M55 1080h176h30q27 0 50.5 6.5t35.5 12.5q8 4 28 17v-665q0 -153 70 -229q57 -61 161 -74q11 -2 36 -2q117 0 189.5 93t72.5 219l2 396v21q0 53 -3 78t-17.5 52.5t-36 45.5t-42.5 29h163h47q30 0 49.5 5.5t30.5 11.5q4 2 28 15v-915v-70q4 -32 23 -64q13 -19 35 -38 t37 -25h-314v157q-57 -91 -139 -136q-97 -53 -246 -53q-161 13 -258 121q-106 117 -106 318l2 491v30q0 27 -11 70q-4 15 -34.5 43.5t-58.5 38.5zM288 1231l385 356l378 -360q-61 0 -86 5t-81 26t-126 59q-51 28 -85 53q-32 -27 -101 -63q-83 -45 -146.5 -60.5t-137.5 -15.5 z" />
<glyph unicode="&#xfc;" horiz-adv-x="1267" d="M55 1080h176h30q27 0 50.5 6.5t35.5 12.5q8 4 28 17v-665q0 -153 70 -229q57 -61 161 -74q11 -2 36 -2q117 0 189.5 93t72.5 219l2 396v21q0 53 -3 78t-17.5 52.5t-36 45.5t-42.5 29h163h47q30 0 49.5 5.5t30.5 11.5q4 2 28 15v-915v-70q4 -32 23 -64q13 -19 35 -38 t37 -25h-314v157q-57 -91 -139 -136q-97 -53 -246 -53q-161 13 -258 121q-106 117 -106 318l2 491v30q0 27 -11 70q-4 15 -34.5 43.5t-58.5 38.5zM292 1383q0 59 40 104.5t104 45.5q20 0 31 -2q61 -11 92 -52t31 -92q0 -59 -40 -104.5t-104 -45.5q-19 0 -31 2q-61 11 -92 52 t-31 92zM722 1379q0 63 40 109.5t110 46.5q16 0 25 -2q64 -9 97 -51t33 -97q0 -63 -39.5 -109t-109.5 -46q-15 0 -25 2q-64 9 -97.5 50.5t-33.5 96.5z" />
<glyph unicode="&#xfd;" horiz-adv-x="0" />
<glyph unicode="&#xff;" horiz-adv-x="1364" d="M28 -404l199 146q63 -57 142 -57q76 0 137 59q51 49 83 127l63 157q-30 27 -59 64q-15 21 -26.5 39t-18.5 35l-357 779q-9 23 -26 48.5t-41.5 45.5t-32.5 25q-19 15 -45 27h223q23 0 36 -4q4 0 34 -15q36 -11 59 -64l354 -792l264 670q19 47 18 95q0 9 -3.5 33t-37.5 52 q-25 21 -36 25h341l-516 -1215q-49 -116 -138 -204q-112 -110 -244 -133q-72 -11 -131 -11q-64 0 -120 15t-121 53zM377 1385q0 59 40 104.5t104 45.5q20 0 31 -2q61 -11 92 -52t31 -92q0 -59 -40 -104.5t-104 -45.5q-19 0 -31 2q-61 11 -92 52t-31 92zM807 1381 q0 63 40 109.5t110 46.5q16 0 25 -2q64 -9 97 -51t33 -97q0 -63 -39.5 -109t-109.5 -46q-15 0 -25 2q-64 9 -97.5 50.5t-33.5 96.5z" />
<glyph unicode="&#x152;" horiz-adv-x="2557" d="M68 750q0 360 236 601.5t590 241.5q95 0 169 -15q80 -23 112 -30h1009q25 0 40 4l32 13v-286l-47 43q-38 32 -113.5 46.5t-161.5 14.5q-55 0 -109.5 -5.5t-75.5 -9.5l-19 -4v-438h299q47 0 63 6l30 11v-263q-9 13 -19 25q-15 19 -30 26q-30 17 -85.5 23t-100.5 6h-157 v-559q15 -6 125 -19t212 -13q59 0 98.5 3.5t73.5 16.5q97 34 135 55t106 78l-112 -322l-1123 -2q-45 -15 -123 -26.5t-161 -11.5q-364 0 -624 220q-269 227 -269 570zM339 765q0 -256 159 -441q176 -205 453 -205q260 0 423 205q151 190 151 453q0 273 -166.5 455.5 t-437.5 182.5q-267 0 -432 -202q-150 -184 -150 -448z" />
<glyph unicode="&#x153;" horiz-adv-x="2265" d="M76 538q0 241 153 400q167 172 449 172q153 0 272 -56.5t196 -153.5q80 102 208 156t283 54q212 0 364 -131q161 -138 161 -350v-49h-860q0 -199 108 -317q129 -140 395 -140q144 0 290 87l67 40l-116 -220l-43 -15q-68 -25 -146 -36t-154 -11q-167 0 -307 61.5 t-235 177.5q-80 -112 -203.5 -175.5t-279.5 -63.5q-275 0 -438.5 162t-163.5 408zM305 561q0 -197 99.5 -319.5t273.5 -122.5t271 127q87 116 87 294q0 161 -91 280q-102 135 -267 135q-169 0 -271 -113.5t-102 -280.5zM1309 724l608 -2q-30 121 -104 175t-191 54 q-121 0 -202.5 -56t-110.5 -171z" />
<glyph unicode="&#x178;" horiz-adv-x="1534" d="M47 1550h25h208q30 0 47.5 -4t44 -15.5t39.5 -23.5t34 -46l366 -591l301 450q11 19 22.5 52.5t11.5 67.5v17q-6 34 -45 66q-13 11 -46 27h423l-580 -872v-424q0 -63 4.5 -99t39.5 -81q15 -19 34 -36q27 -25 51 -38h-479q27 15 45.5 32t34.5 45.5t21 64.5t5 83v36l2 415 l-419 673q-30 55 -48 78.5t-43 46.5q-34 34 -53 48t-46 28zM409 1743q0 59 40 104.5t104 45.5q20 0 31 -2q61 -11 92 -52t31 -92q0 -59 -40 -104.5t-104 -45.5q-19 0 -31 2q-61 11 -92 52t-31 92zM839 1739q0 63 40 109.5t110 46.5q16 0 25 -2q64 -9 97 -51t33 -97 q0 -63 -39.5 -109t-109.5 -46q-15 0 -25 2q-64 9 -97.5 50.5t-33.5 96.5z" />
<glyph unicode="&#x2000;" horiz-adv-x="1041" />
<glyph unicode="&#x2001;" horiz-adv-x="2082" />
<glyph unicode="&#x2002;" horiz-adv-x="1041" />
<glyph unicode="&#x2003;" horiz-adv-x="2082" />
<glyph unicode="&#x2004;" horiz-adv-x="694" />
<glyph unicode="&#x2005;" horiz-adv-x="520" />
<glyph unicode="&#x2006;" horiz-adv-x="347" />
<glyph unicode="&#x2007;" horiz-adv-x="347" />
<glyph unicode="&#x2008;" horiz-adv-x="260" />
<glyph unicode="&#x2009;" horiz-adv-x="416" />
<glyph unicode="&#x200a;" horiz-adv-x="115" />
<glyph unicode="&#x2010;" horiz-adv-x="909" d="M76 498l148 167q11 13 32 24.5t40 11.5h28q53 0 114.5 -1t133.5 -1h30h25h21q32 0 57.5 1t52 6.5t51.5 13t42 13.5l-148 -167q-17 -19 -36 -29t-47 -10h-36h-108t-120 2q-59 0 -110 -1t-75 -7z" />
<glyph unicode="&#x2011;" horiz-adv-x="909" d="M76 498l148 167q11 13 32 24.5t40 11.5h28q53 0 114.5 -1t133.5 -1h30h25h21q32 0 57.5 1t52 6.5t51.5 13t42 13.5l-148 -167q-17 -19 -36 -29t-47 -10h-36h-108t-120 2q-59 0 -110 -1t-75 -7z" />
<glyph unicode="&#x2012;" horiz-adv-x="909" d="M76 498l148 167q11 13 32 24.5t40 11.5h28q53 0 114.5 -1t133.5 -1h30h25h21q32 0 57.5 1t52 6.5t51.5 13t42 13.5l-148 -167q-17 -19 -36 -29t-47 -10h-36h-108t-120 2q-59 0 -110 -1t-75 -7z" />
<glyph unicode="&#x2013;" horiz-adv-x="1053" d="M63 496l147 167q15 19 31 25q23 13 41 13q4 2 147 0t244 -2h45.5h29.5h27h21q74 0 100 6l97 26l-148 -166q-23 -23 -42 -31.5t-41 -8.5h-29h-142.5t-169.5 2q-85 0 -161 -1t-103 -7z" />
<glyph unicode="&#x2014;" horiz-adv-x="1676" d="M61 491l147 166q17 21 36 30.5t48 9.5h90t103 2l627 -2h46.5h31.5h64h51h42h34h27h22q76 0 86 6l94 25l-147 -169q-17 -17 -34.5 -26.5t-37.5 -9.5h-31l-712 2q-163 0 -311 -1t-179 -6.5t-55.5 -13.5t-41.5 -13z" />
<glyph unicode="&#x2018;" horiz-adv-x="420" d="M72 1267q0 51 22 106t65 112q34 49 51 69q27 32 46 39q36 11 83 -26l-25 -25q-102 -108 -102 -161q0 -15 12 -15q70 -17 94 -38q40 -34 40 -87q0 -63 -40.5 -96t-97.5 -33q-80 0 -118 55q-30 42 -30 100z" />
<glyph unicode="&#x2019;" horiz-adv-x="413" d="M64 1468q0 61 40 95t97 34q75 0 119 -57q30 -42 30 -98q0 -53 -21.5 -108t-65.5 -112q-36 -49 -51 -66q-28 -34 -45 -40q-36 -11 -84 26l25 25q102 106 102 161q0 11 -11 15q-59 8 -97 40t-38 85z" />
<glyph unicode="&#x201a;" horiz-adv-x="413" d="M64 112q0 61 40 95t97 34q75 0 119 -57q30 -42 30 -99q0 -53 -21.5 -108t-65.5 -112q-36 -49 -51 -66q-28 -34 -45 -40q-36 -11 -84 27l25 25q102 106 102 161q0 11 -11 15q-59 8 -97 40t-38 85z" />
<glyph unicode="&#x201c;" horiz-adv-x="803" d="M64 1273q0 49 25 107t63 111q28 42 51 66q30 34 43.5 39t22.5 5q30 0 63 -29l-23 -24q-102 -108 -102 -161q0 -13 11 -17q63 -9 95 -36q39 -34 39 -89q0 -61 -39.5 -95t-98.5 -34q-74 0 -117 57q-32 47 -33 100zM455 1273q0 47 24.5 105t60.5 109t53 70q27 32 45 40 q36 11 84 -26l-25 -25q-49 -49 -74.5 -92t-25.5 -67q0 -13 11 -17q59 -17 70 -23q63 -34 63 -102q0 -61 -40 -95t-97 -34q-78 0 -117 57q-32 47 -32 100z" />
<glyph unicode="&#x201d;" horiz-adv-x="801" d="M59 1468q0 59 39.5 93t94.5 34q77 0 121 -57q30 -42 31 -98q0 -51 -22 -106t-65 -112q-36 -49 -51 -66q-28 -34 -42.5 -39t-24.5 -5q-28 0 -62 29l24 24q102 108 103 161q0 13 -12 17q-61 8 -94 36q-40 34 -40 89zM441 1470q0 61 40 95t97 34q77 0 117 -57 q32 -44 33 -100q0 -49 -24 -107t-62 -109t-53 -68q-28 -34 -45 -40q-36 -11 -84 26l25 25q49 49 74.5 91.5t25.5 67.5q0 13 -11 17q-59 8 -96 40t-37 85z" />
<glyph unicode="&#x201e;" horiz-adv-x="795" d="M64 112q0 61 40 95t97 34q75 0 119 -57q30 -42 30 -99q0 -53 -21.5 -108t-65.5 -112q-36 -49 -51 -66q-28 -34 -45 -40q-36 -11 -84 27l25 25q102 106 102 161q0 11 -11 15q-59 8 -97 40t-38 85zM428 112q0 61 40 95t97 34q75 0 119 -57q30 -42 30 -99q0 -53 -21.5 -108 t-65.5 -112q-36 -49 -51 -66q-28 -34 -46 -40q-36 -11 -83 27l25 25q102 106 102 161q0 11 -11 15q-59 8 -97 40t-38 85z" />
<glyph unicode="&#x2022;" horiz-adv-x="568" d="M81 792q0 83 52.5 142t148.5 59q99 0 158 -67q53 -61 53 -145q0 -81 -50 -137q-54 -62 -151 -62q-99 0 -155 63.5t-56 146.5z" />
<glyph unicode="&#x2026;" horiz-adv-x="1470" d="M59 119q0 59 39.5 104.5t109.5 45.5q68 0 106 -41.5t38 -102.5q0 -59 -39.5 -104.5t-109.5 -45.5q-68 0 -106 42t-38 102zM580 119q0 59 39.5 104.5t109.5 45.5q68 0 106 -41.5t38 -100.5t-39.5 -104.5t-109.5 -45.5q-68 0 -106 42t-38 100zM1099 119q0 59 40 104.5 t110 45.5q68 0 105.5 -41.5t37.5 -100.5t-39.5 -104.5t-109.5 -45.5q-68 0 -106 42t-38 100z" />
<glyph unicode="&#x202f;" horiz-adv-x="416" />
<glyph unicode="&#x205f;" horiz-adv-x="520" />
<glyph unicode="&#x2122;" horiz-adv-x="1809" d="M74 1516h17q9 -2 102 -4t193 -2l294 6l21 2l-8 -182h-32l-9 70q0 23 -11.5 36t-28.5 13l-174 4v-616q0 -28 11 -41.5t29 -16.5t34 -3l24 -1v-33h-15q-6 0 -55 3t-81 5q-30 0 -81.5 -4t-57.5 -4h-17v34l31 2q40 0 56 18t16 41v616l-173 -8q-19 -2 -23 -5q-9 -13 -11 -31 l-13 -79h-32zM741 748v34l32 2q17 0 30.5 3t22.5 12q17 17 17 44v574q0 23 -2 29q-8 11 -13 18q-8 9 -31.5 12.5t-44.5 3.5h-11v34h19l74 -6l106 6h13l288 -610l112 233q27 53 87 178q32 68 47 100l32 80l6 19h17l93 -6l87 6h13v-34h-15q-21 0 -43.5 -3t-30.5 -13 q-15 -21 -15 -47v-574q0 -25 11.5 -39t30.5 -17t34 -5l25 -1v-33h-17q-6 0 -55.5 3t-79.5 5q-30 0 -81.5 -4t-56.5 -4h-19v34l32 2q40 0 55 16.5t15 42.5v534l-301 -640h-21l-301 638v-532q0 -27 15 -44q9 -9 32 -13t29 -4l26 -1v-33h-17q-6 0 -55 3t-81 5q-17 0 -41 -3 t-50 -5h-19z" />
<glyph unicode="&#x25fc;" horiz-adv-x="1079" d="M0 0v1080h1080v-1080h-1080z" />
</font>
</defs>
</svg>
